<svg width="30" height="30" viewBox="0 0 30 30" fill="none" xmlns="http://www.w3.org/2000/svg">
<path d="M12.394 16.283C12.394 16.4214 12.395 17.4447 12.395 17.6002C12.2709 17.6002 9.95039 17.5943 9.81298 17.5943C9.81298 17.4317 9.80371 16.3835 9.80371 16.2773C9.86023 16.2773 12.2979 16.283 12.394 16.283Z" fill="white"/>
<path d="M23.3305 23.6316C23.3305 23.7701 23.3315 24.7934 23.3315 24.9488C23.2073 24.9488 20.8868 24.9429 20.7495 24.9429C20.7495 24.7804 20.7402 23.7322 20.7402 23.626C20.7968 23.626 23.2344 23.6316 23.3305 23.6316Z" fill="white"/>
<path d="M13.4056 21.9091C12.9782 21.6578 12.4766 21.5632 11.9871 21.6416C11.567 21.7001 11.1565 21.8547 10.9078 22.2161C10.7721 22.4131 11.0931 22.5986 11.2278 22.4031C11.4114 22.1364 11.7652 22.0394 12.071 22.0016C12.4683 21.9445 12.8732 22.0249 13.2187 22.2294C13.4225 22.3543 13.609 22.0339 13.4057 21.9094L13.4056 21.9091Z" fill="black"/>
<path d="M12.6965 22.6517C12.6353 22.8203 12.5735 22.9887 12.5125 23.1572C12.5059 23.1811 12.5042 23.206 12.5074 23.2305C12.5106 23.255 12.5186 23.2786 12.531 23.3C12.5433 23.321 12.5596 23.3394 12.5789 23.3542C12.5983 23.3689 12.6204 23.3796 12.644 23.3858C12.6675 23.392 12.692 23.3935 12.7161 23.3902C12.7402 23.3869 12.7635 23.3788 12.7845 23.3666C12.8248 23.3406 12.8549 23.3014 12.8696 23.2558C12.9308 23.0872 12.9921 22.9187 13.0537 22.7502C13.0635 22.7147 13.0624 22.677 13.0507 22.6421C13.039 22.6071 13.0172 22.5765 12.9879 22.554C12.9587 22.5315 12.9235 22.5183 12.8867 22.516C12.8499 22.5137 12.8132 22.5224 12.7814 22.541C12.7411 22.5669 12.711 22.6061 12.6963 22.6517H12.6965Z" fill="black"/>
<path d="M11.8359 22.6749L11.9423 23.0341C11.9559 23.0803 11.9862 23.1198 12.0274 23.1448C12.0707 23.1695 12.122 23.1762 12.1702 23.1633C12.2169 23.1504 12.2567 23.1198 12.2814 23.0781C12.306 23.0348 12.3127 22.9835 12.2999 22.9353L12.1935 22.5763C12.18 22.53 12.1496 22.4905 12.1084 22.4655C12.0766 22.4468 12.0399 22.438 12.003 22.4403C11.9661 22.4426 11.9308 22.4558 11.9015 22.4783C11.8722 22.5008 11.8503 22.5316 11.8386 22.5666C11.8269 22.6016 11.826 22.6394 11.8359 22.6749Z" fill="black"/>
<path d="M11.9007 23.3702C11.6994 23.2669 11.5008 23.1584 11.2995 23.0551C11.2571 23.0306 11.2067 23.0239 11.1594 23.0364C11.112 23.049 11.0715 23.0798 11.0468 23.122C11.0221 23.1643 11.0151 23.2147 11.0274 23.2621C11.0397 23.3095 11.0703 23.3501 11.1124 23.3751C11.3138 23.4784 11.5123 23.5869 11.7136 23.6901C11.756 23.7149 11.8066 23.7218 11.8541 23.7094C11.8777 23.7032 11.8998 23.6925 11.9192 23.6777C11.9386 23.663 11.9549 23.6446 11.9671 23.6236C11.9794 23.6026 11.9874 23.5794 11.9908 23.5553C11.9941 23.5312 11.9926 23.5066 11.9864 23.4831C11.9802 23.4595 11.9695 23.4374 11.9548 23.418C11.9401 23.3987 11.9217 23.3824 11.9007 23.3701V23.3702Z" fill="black"/>
<path d="M26.765 2.75909C26.7659 4.63692 26.7668 6.51456 26.7678 8.39202C26.7689 10.5845 26.77 12.777 26.7712 14.9695C26.7722 17.1091 26.7733 19.2487 26.7744 21.3883C26.7752 23.1433 26.7761 24.8983 26.777 26.6532C26.7774 27.6532 26.7778 28.6532 26.7781 29.6532V29.8146L26.9635 29.6293C26.6145 29.6298 26.2656 29.6285 25.9164 29.6275C25.2937 29.6257 24.671 29.6236 24.0482 29.6213C23.2126 29.6183 22.3771 29.6152 21.5415 29.612C20.5671 29.608 19.5926 29.604 18.6181 29.5999C17.5625 29.5956 16.5069 29.5911 15.4511 29.5865L12.2686 29.5729C11.2594 29.5686 10.2502 29.5643 9.24104 29.5601L6.59543 29.5493C5.89928 29.5466 5.20315 29.544 4.50706 29.5415C4.06953 29.54 3.63198 29.5388 3.1944 29.5378H3.01103L3.19634 29.7231C3.19634 28.8277 3.19125 27.9322 3.18763 27.0366C3.1809 25.3636 3.17361 23.6905 3.16577 22.0175C3.15613 19.9131 3.14634 17.8088 3.13639 15.7045L3.10554 9.14263C3.09646 7.21192 3.08744 5.28125 3.07848 3.35061L3.0757 2.75909C3.07469 2.52069 2.70406 2.52022 2.70508 2.75909C2.71367 4.63365 2.72244 6.50817 2.73139 8.38266L2.76225 14.9032C2.77232 17.0361 2.78229 19.1689 2.79218 21.3017C2.80015 23.0454 2.80784 24.7891 2.81525 26.5328C2.81939 27.5418 2.82291 28.5508 2.82581 29.5598C2.82581 29.6141 2.82581 29.6683 2.82581 29.7225C2.82648 29.7714 2.84622 29.8182 2.88083 29.8528C2.91544 29.8874 2.96218 29.9071 3.01112 29.9078C3.37816 29.9078 3.74514 29.9086 4.11206 29.9104C4.74892 29.9124 5.38574 29.9147 6.02254 29.9172L8.56002 29.9274L11.5023 29.9398L14.6767 29.9534L17.8548 29.9669L20.8661 29.9794C21.7388 29.9831 22.6114 29.9865 23.484 29.9898C24.1669 29.9924 24.8498 29.9948 25.5327 29.997C25.9533 29.9983 26.3738 29.9993 26.7943 30H26.9633C27.0122 29.9993 27.0589 29.9795 27.0935 29.9449C27.1281 29.9103 27.1479 29.8636 27.1486 29.8147C27.1486 28.9273 27.1483 28.0399 27.1477 27.1525C27.1469 25.4689 27.1461 23.7853 27.1453 22.1016C27.1441 19.9906 27.1431 17.8797 27.142 15.7687C27.1409 13.5624 27.1398 11.3561 27.1386 9.14986C27.1377 7.22039 27.1367 5.29089 27.1357 3.36135V2.75909C27.1357 2.52059 26.7651 2.52022 26.7651 2.75909H26.765Z" fill="black"/>
<path d="M3.05812 2.66646C3.05812 1.83932 3.08212 1.01236 3.08286 0.185312L2.89755 0.370624C3.16839 0.370624 3.43922 0.372014 3.70996 0.372941C4.30148 0.374979 4.89296 0.37711 5.48442 0.379334L7.99169 0.3886L11.003 0.400089L14.2886 0.412783L17.6197 0.425569L20.7671 0.437429C21.6785 0.440888 22.5901 0.444255 23.5017 0.447529C24.1992 0.45 24.8967 0.452409 25.5943 0.454756C26.0015 0.456053 26.4087 0.457196 26.816 0.458184H26.955L26.7696 0.272872C26.7696 1.07058 26.7702 1.86829 26.7714 2.66599C26.7714 2.90449 27.142 2.90486 27.142 2.66599C27.142 1.86835 27.1414 1.07064 27.1403 0.272872C27.1396 0.22394 27.1198 0.177208 27.0852 0.142605C27.0506 0.108001 27.0039 0.0882545 26.955 0.08756C26.6296 0.08756 26.3043 0.0861701 25.979 0.0851509C25.3448 0.0835449 24.7105 0.0815682 24.0762 0.0792209L21.4762 0.0699553L18.4079 0.058188L15.1001 0.0455868L11.7827 0.0328002L8.68411 0.0208476C7.80079 0.017512 6.91747 0.0141764 6.03415 0.0108408C5.37616 0.00830816 4.71831 0.0058991 4.06057 0.00361359C3.70496 0.0023164 3.34937 0.00111187 2.99382 0H2.89755C2.84862 0.00069451 2.80189 0.0204414 2.76728 0.0550447C2.73268 0.0896481 2.71293 0.136381 2.71224 0.185312C2.7115 1.01236 2.68778 1.83932 2.6875 2.66646C2.6875 2.90495 3.05812 2.90532 3.05812 2.66646Z" fill="black"/>
<path d="M25.4248 2.81046C25.4248 3.11931 25.4248 3.42817 25.4248 3.73702C25.4248 4.30698 25.4251 4.87691 25.4258 5.4468L25.4275 7.73967L25.4294 10.4472C25.4302 11.422 25.4309 12.3968 25.4316 13.3718L25.4338 16.3122C25.4345 17.2432 25.4352 18.1743 25.4358 19.1053L25.4375 21.5404C25.438 22.1767 25.4384 22.8131 25.4387 23.4499C25.4387 23.8445 25.4389 24.2392 25.4394 24.6337V24.7903C25.4394 25.0287 25.81 25.0292 25.81 24.7903C25.81 24.4638 25.81 24.1373 25.81 23.8109L25.8089 22.0597L25.8072 19.7371L25.8053 17.0112C25.8045 16.034 25.8038 15.0568 25.8031 14.0796C25.8024 13.1009 25.8017 12.1221 25.801 11.1434C25.8002 10.2176 25.7996 9.29175 25.799 8.36593C25.7983 7.56328 25.7977 6.76057 25.7972 5.9578C25.7968 5.33392 25.7964 4.71003 25.796 4.08615C25.796 3.70824 25.7958 3.33023 25.7954 2.95213C25.7954 2.90451 25.7954 2.85691 25.7954 2.80935C25.7954 2.57094 25.4248 2.57048 25.4248 2.80935V2.81046Z" fill="black"/>
<path d="M4.02148 2.8106C4.02148 3.11946 4.02164 3.42831 4.02195 3.73716C4.02195 4.30712 4.02229 4.87705 4.02297 5.44695L4.02463 7.73981L4.02658 10.4473C4.02732 11.4221 4.02803 12.397 4.02871 13.3719L4.03094 16.3124C4.03161 17.2434 4.03229 18.1744 4.03297 19.1055L4.03464 21.5406C4.03514 22.1768 4.03554 22.8133 4.03585 23.45C4.03585 23.8447 4.03606 24.2393 4.03649 24.6339V24.7905C4.03649 25.0289 4.40712 25.0293 4.40712 24.7905C4.40712 24.464 4.40712 24.1375 4.40712 23.811L4.40601 22.0598L4.40434 19.7373L4.40239 17.0114C4.40165 16.0341 4.40094 15.0569 4.40026 14.0797C4.39952 13.101 4.39881 12.1223 4.39813 11.1435C4.39714 10.2181 4.3964 9.29261 4.39591 8.36691C4.39523 7.56426 4.39464 6.76155 4.39415 5.95878C4.39378 5.33489 4.39337 4.71101 4.39294 4.08713C4.39294 3.70921 4.39276 3.33121 4.39239 2.95311C4.39239 2.90548 4.39239 2.85789 4.39239 2.81032C4.39239 2.57192 4.02176 2.57146 4.02176 2.81032L4.02148 2.8106Z" fill="black"/>
<path d="M4.21138 25.0752C4.44987 25.0752 4.45024 24.7046 4.21138 24.7046C3.97251 24.7046 3.97251 25.0752 4.21138 25.0752Z" fill="black"/>
<path d="M6.49619 23.9595C5.78014 23.9584 5.06406 23.9574 4.34796 23.9565C4.10946 23.9565 4.10909 24.3272 4.34796 24.3272C5.06413 24.3272 5.7802 24.3282 6.49619 24.3301C6.73468 24.3301 6.73506 23.9595 6.49619 23.9595Z" fill="black"/>
<path d="M16.4625 23.9764C15.565 23.9764 14.6674 23.9751 13.7697 23.9725L9.46834 23.9649L7.49542 23.9614C7.25692 23.9614 7.25655 24.3321 7.49542 24.3321C8.78346 24.3342 10.0714 24.3364 11.3592 24.3388C12.683 24.3411 14.0069 24.3434 15.3309 24.3456C15.7077 24.3462 16.0848 24.3467 16.4621 24.3471C16.7006 24.3471 16.701 23.9764 16.4621 23.9764H16.4625Z" fill="black"/>
<path d="M20.7312 23.985C19.3082 23.9828 17.8852 23.9805 16.4622 23.978C16.2237 23.978 16.2233 24.3487 16.4622 24.3487C17.8852 24.3512 19.3082 24.3535 20.7312 24.3556C20.9697 24.3556 20.9701 23.985 20.7312 23.985Z" fill="black"/>
<path d="M25.4804 23.9912C24.7712 23.9912 24.062 23.9904 23.3528 23.9888C23.1143 23.9888 23.114 24.3594 23.3528 24.3594C24.062 24.3604 24.7712 24.3612 25.4804 24.3618C25.7189 24.3618 25.7193 23.9912 25.4804 23.9912Z" fill="black"/>
<path d="M9.81177 17.3122C8.19486 17.3052 6.57788 17.299 4.96085 17.2937C4.74193 17.2931 4.52299 17.2927 4.30401 17.2925C4.06551 17.2925 4.06514 17.6631 4.30401 17.6631C5.58202 17.6631 6.86011 17.6708 8.13812 17.6761L9.81177 17.6832C10.0504 17.6843 10.0506 17.3137 9.81177 17.3126V17.3122Z" fill="black"/>
<path d="M25.2406 17.3782C24.1954 17.3799 23.1502 17.3717 22.1051 17.3673C20.1202 17.3588 18.1353 17.35 16.1504 17.3407L12.4163 17.3237C12.1778 17.3227 12.1774 17.6932 12.4163 17.6944C14.6045 17.7042 16.7926 17.7141 18.9807 17.7242C20.6449 17.7317 22.3091 17.7388 23.9732 17.7455C24.3957 17.747 24.8181 17.7495 25.2407 17.7488C25.4791 17.7488 25.4795 17.3782 25.2407 17.3782H25.2406Z" fill="black"/>
<path d="M9.79144 16.5705C8.21499 16.5637 6.63854 16.5575 5.06208 16.552C4.86442 16.5514 4.66675 16.551 4.46909 16.5508C4.23059 16.5508 4.23013 16.9214 4.46909 16.9214C5.68918 16.9214 6.90937 16.9291 8.12956 16.9342L9.79171 16.9413C10.0302 16.9423 10.0305 16.5717 9.79171 16.5707L9.79144 16.5705Z" fill="black"/>
<path d="M14.1769 16.5901C13.6141 16.5875 13.0513 16.5848 12.4885 16.582C12.2501 16.5809 12.2498 16.9515 12.4885 16.9527C13.0513 16.9551 13.6141 16.9578 14.1769 16.9607C14.4154 16.9618 14.4158 16.5912 14.1769 16.5901Z" fill="black"/>
<path d="M19.685 16.6163C18.2539 16.6101 16.8228 16.6028 15.3919 16.5942C15.1534 16.5931 15.1531 16.9638 15.3919 16.9649C16.8229 16.971 18.254 16.9784 19.685 16.9869C19.9235 16.988 19.9238 16.6174 19.685 16.6163Z" fill="black"/>
<path d="M25.4054 16.6368C24.4406 16.6383 23.4758 16.6308 22.5111 16.6265L21.054 16.6201C20.8155 16.6191 20.8152 16.9897 21.054 16.9907C22.3483 16.9964 23.6427 17.0017 24.9371 17.0069C25.0932 17.0072 25.2493 17.0074 25.4054 17.0074C25.6439 17.0074 25.6443 16.6368 25.4054 16.6368Z" fill="black"/>
<path d="M25.3994 9.96556C25.086 9.96556 24.7726 9.96482 24.4592 9.9639C23.9099 9.96229 23.3606 9.96034 22.8113 9.95806C22.0867 9.95516 21.362 9.95207 20.6373 9.94879L18.0872 9.93749L15.3404 9.92489L12.5804 9.91219L9.95127 9.90024C9.17975 9.89678 8.40823 9.89342 7.63672 9.89014C7.02927 9.88755 6.42181 9.88514 5.81436 9.88292C5.42205 9.88143 5.02981 9.88026 4.63763 9.87939H4.46909C4.23059 9.87939 4.23013 10.25 4.46909 10.25C4.79944 10.25 5.12991 10.2508 5.46051 10.2524C6.02311 10.2544 6.58572 10.2566 7.14833 10.2589C7.88254 10.2619 8.61674 10.265 9.35095 10.2682C10.207 10.272 11.063 10.2759 11.919 10.2799L14.6726 10.2925L17.4285 10.3051C18.2995 10.309 19.1708 10.3129 20.0424 10.3168C20.8052 10.3202 21.5681 10.3234 22.331 10.3266C22.9262 10.329 23.5213 10.3312 24.1163 10.3333C24.4926 10.3346 24.8688 10.3354 25.2451 10.336H25.4003C25.6387 10.336 25.6391 9.96538 25.4003 9.96538L25.3994 9.96556Z" fill="black"/>
<path d="M6.17803 9.14282C5.60838 9.14072 5.03873 9.13917 4.46909 9.13818C4.23059 9.13818 4.23013 9.50881 4.46909 9.50881C5.03873 9.50881 5.60838 9.51035 6.17803 9.51344C6.41653 9.51437 6.4169 9.14374 6.17803 9.14282Z" fill="black"/>
<path d="M12.6119 9.1704C11.2503 9.16336 9.88876 9.15573 8.52715 9.14751C8.19692 9.14609 7.86669 9.14461 7.53647 9.14307C7.29788 9.14223 7.2976 9.51286 7.53647 9.51369C8.77553 9.51839 10.0146 9.52503 11.2536 9.53361C11.7065 9.53621 12.1593 9.53868 12.612 9.54103C12.8506 9.54223 12.8508 9.17161 12.6119 9.1704Z" fill="black"/>
<path d="M16.5106 9.18904C16.0897 9.18718 15.6687 9.18521 15.2478 9.18311C15.1987 9.18311 15.1515 9.20263 15.1168 9.23738C15.082 9.27213 15.0625 9.31927 15.0625 9.36842C15.0625 9.41757 15.082 9.4647 15.1168 9.49945C15.1515 9.53421 15.1987 9.55373 15.2478 9.55373C15.6688 9.55577 16.0897 9.55775 16.5106 9.55966C16.5598 9.55966 16.6069 9.54014 16.6417 9.50538C16.6764 9.47063 16.6959 9.4235 16.6959 9.37435C16.6959 9.3252 16.6764 9.27807 16.6417 9.24331C16.6069 9.20856 16.5598 9.18904 16.5106 9.18904Z" fill="black"/>
<path d="M19.6443 9.1994C19.0731 9.19675 18.502 9.19424 17.931 9.1919C17.6925 9.19088 17.6921 9.5615 17.931 9.56252C18.502 9.56524 19.0731 9.56774 19.6443 9.57003C19.8828 9.57123 19.883 9.20061 19.6443 9.1994Z" fill="black"/>
<path d="M21.0648 9.56268C22.3275 9.56805 23.5903 9.5649 24.8531 9.56796C25.1037 9.56852 25.3543 9.56926 25.6049 9.57018C25.8434 9.57139 25.8437 9.20076 25.6049 9.19956C24.5618 9.19474 23.5187 9.19202 22.4757 9.19141C22.0053 9.19141 21.535 9.19409 21.0648 9.19206C20.8262 9.19113 20.8259 9.56175 21.0648 9.56268Z" fill="black"/>
<path d="M27.4367 2.55327C27.0791 2.55327 26.7213 2.55253 26.3636 2.5516C25.7203 2.55 25.0769 2.54805 24.4335 2.54576C23.564 2.54292 22.6945 2.53983 21.8251 2.5365L18.7761 2.5252L15.4863 2.51287L12.1651 2.50009L9.02163 2.48823C8.09945 2.48495 7.17725 2.48155 6.25501 2.47803C5.536 2.47544 4.81702 2.473 4.09807 2.47071C3.64795 2.46929 3.19779 2.46815 2.74761 2.46729H2.56378C2.32528 2.46729 2.32491 2.83791 2.56378 2.83791C2.93959 2.83791 3.3154 2.83871 3.69122 2.84032C4.34864 2.8423 5.00607 2.84446 5.66349 2.8468C6.54329 2.84989 7.423 2.85298 8.30262 2.85607L11.3706 2.86765L14.6677 2.88025L17.9848 2.89295L21.1122 2.90462C22.0251 2.90796 22.9379 2.9112 23.8508 2.91435C24.5566 2.91676 25.2624 2.91901 25.9682 2.92111C26.4013 2.92235 26.8344 2.92325 27.2675 2.9238C27.3239 2.9238 27.3803 2.9238 27.4369 2.9238C27.6754 2.9238 27.6759 2.55318 27.4369 2.55318L27.4367 2.55327Z" fill="black"/>
<path d="M27.4367 24.7908C27.0791 24.7908 26.7213 24.79 26.3636 24.7891C25.7203 24.7875 25.0769 24.7855 24.4335 24.7833C23.564 24.7804 22.6945 24.7773 21.8251 24.774L18.7761 24.7627L15.4862 24.7502L12.165 24.7374L9.02153 24.7255C8.0993 24.722 7.17712 24.7186 6.25501 24.7153C5.536 24.7127 4.81702 24.7103 4.09807 24.708C3.64795 24.7067 3.19779 24.7055 2.74761 24.7046H2.56378C2.32528 24.7046 2.32491 25.0752 2.56378 25.0752C2.93959 25.0752 3.3154 25.076 3.69122 25.0776C4.34864 25.0795 5.00607 25.0817 5.66349 25.0841C6.54329 25.0872 7.423 25.0903 8.30262 25.0934L11.3706 25.105L14.6677 25.1176L17.9848 25.1303L21.1122 25.1419C22.0251 25.1453 22.9379 25.1484 23.8508 25.1512C24.5566 25.1536 25.2624 25.1559 25.9682 25.158C26.4013 25.1591 26.8344 25.16 27.2675 25.1606H27.4369C27.6754 25.1606 27.6759 24.79 27.4369 24.79L27.4367 24.7908Z" fill="black"/>
<path d="M12.2148 16.3321C12.217 16.3446 12.2121 16.2826 12.2135 16.3279C12.2141 16.3464 12.216 16.3645 12.217 16.3827C12.2196 16.4327 12.2209 16.4828 12.222 16.5328C12.225 16.6692 12.2257 16.8058 12.226 16.9423C12.2264 17.1584 12.2243 17.3747 12.2241 17.5909L12.4094 17.4056C11.663 17.4056 10.9164 17.3935 10.17 17.3876C10.0466 17.3866 9.92308 17.3851 9.79938 17.385L9.9847 17.5703C9.9847 17.1499 9.98961 16.7295 9.98989 16.3092L9.85387 16.4878C9.88833 16.4768 9.79883 16.4892 9.83534 16.4897C9.85498 16.4897 9.87555 16.4866 9.89519 16.4854C9.95792 16.4817 10.0207 16.4796 10.0835 16.4774C10.2774 16.471 10.4714 16.4673 10.6653 16.4641C11.1085 16.4568 11.5519 16.4522 11.9951 16.4557C12.0784 16.4564 12.1618 16.4572 12.2452 16.4596C12.2752 16.4605 12.3053 16.4612 12.3353 16.4631C12.3579 16.4644 12.4303 16.4746 12.3446 16.4615C12.3919 16.473 12.4419 16.4659 12.4842 16.4418C12.5266 16.4177 12.5582 16.3783 12.5725 16.3318C12.5852 16.2843 12.5787 16.2338 12.5544 16.1912C12.5301 16.1485 12.49 16.1171 12.4428 16.1038C12.1272 16.0551 11.79 16.083 11.4722 16.0846C11.0258 16.0868 10.5791 16.0914 10.1329 16.105C10.0066 16.0971 9.87968 16.1055 9.75547 16.1301C9.71676 16.1416 9.68271 16.1652 9.65826 16.1973C9.63381 16.2294 9.62021 16.2685 9.61945 16.3089C9.61945 16.7293 9.61444 17.1496 9.61426 17.57C9.61498 17.6189 9.63473 17.6657 9.66933 17.7003C9.70393 17.7349 9.75065 17.7546 9.79957 17.7553C10.5483 17.756 11.2972 17.7675 12.0458 17.7734C12.167 17.7743 12.2882 17.7759 12.4094 17.7759C12.4583 17.7752 12.5051 17.7554 12.5397 17.7208C12.5743 17.6862 12.594 17.6395 12.5947 17.5906C12.5947 17.3655 12.5972 17.1405 12.5966 16.9154C12.6074 16.6877 12.5993 16.4595 12.5722 16.2332C12.5589 16.1859 12.5275 16.1458 12.4849 16.1216C12.4422 16.0973 12.3917 16.0908 12.3443 16.1035C12.2973 16.1174 12.2576 16.1491 12.2334 16.1917C12.2093 16.2343 12.2026 16.2847 12.2148 16.3321Z" fill="black"/>
<path d="M10.55 17.1425C10.8362 17.1425 10.8366 16.6978 10.55 16.6978C10.2633 16.6978 10.2633 17.1425 10.55 17.1425Z" fill="black"/>
<path d="M11.2136 17.1155C11.3608 17.1155 11.5093 17.1106 11.6563 17.1207C11.6929 17.1207 11.7288 17.1098 11.7592 17.0894C11.7897 17.0691 11.8135 17.0401 11.8275 17.0063C11.8415 16.9724 11.8452 16.9351 11.838 16.8992C11.8309 16.8633 11.8132 16.8302 11.7873 16.8043C11.7515 16.7712 11.7051 16.7519 11.6563 16.75C11.5093 16.7399 11.3608 16.7448 11.2136 16.7448C11.1646 16.7454 11.1177 16.7649 11.0826 16.7991C11.0567 16.8251 11.039 16.8581 11.0319 16.894C11.0247 16.93 11.0284 16.9672 11.0424 17.0011C11.0564 17.0349 11.0802 17.0639 11.1107 17.0842C11.1411 17.1046 11.1769 17.1155 11.2136 17.1155Z" fill="black"/>
<path d="M15.0345 8.77714C15.0368 8.78965 15.0319 8.72757 15.0332 8.77288C15.0339 8.79141 15.0357 8.80948 15.0368 8.82773C15.0394 8.87767 15.0406 8.9278 15.0417 8.97783C15.0447 9.11422 15.0455 9.2508 15.0458 9.38728C15.0458 9.60345 15.044 9.81971 15.0438 10.0359L15.2291 9.85056C14.4827 9.85056 13.7362 9.83852 12.9898 9.83259C12.8663 9.83157 12.7428 9.83008 12.6192 9.82999L12.8045 10.0153C12.8045 9.5674 12.8143 9.1196 12.8149 8.67179L12.6788 8.85043C12.7011 8.84348 12.618 8.85173 12.6602 8.85303C12.6799 8.85367 12.7004 8.85108 12.72 8.85052C12.7826 8.84867 12.8453 8.84858 12.9079 8.84858C13.1015 8.84858 13.295 8.85136 13.4886 8.85469C13.9309 8.86229 14.3734 8.87322 14.8155 8.89009C14.8989 8.89333 14.9823 8.89676 15.0648 8.90139C15.0949 8.90306 15.1248 8.9051 15.1548 8.90704C15.1649 8.90779 15.175 8.90936 15.1851 8.90964C15.2231 8.91084 15.1564 8.90528 15.1639 8.90649C15.2113 8.91801 15.2612 8.911 15.3036 8.88688C15.346 8.86277 15.3775 8.82338 15.3918 8.77677C15.4045 8.72934 15.398 8.67883 15.3737 8.63615C15.3495 8.59348 15.3094 8.56208 15.2621 8.54874C14.9404 8.51296 14.6168 8.49748 14.2932 8.50242C13.8479 8.48991 13.4023 8.47925 12.9567 8.47814C12.8311 8.46525 12.7042 8.47031 12.58 8.49315C12.5413 8.50464 12.5072 8.52815 12.4828 8.56029C12.4583 8.59242 12.4447 8.63151 12.444 8.67188C12.4434 9.11969 12.434 9.5675 12.4336 10.0154C12.4343 10.0643 12.4541 10.111 12.4887 10.1456C12.5233 10.1802 12.57 10.2 12.6189 10.2007C13.3677 10.2014 14.1165 10.2128 14.8652 10.2188C14.9864 10.2197 15.1076 10.2213 15.2288 10.2213C15.2777 10.2206 15.3244 10.2008 15.359 10.1662C15.3936 10.1316 15.4133 10.0849 15.4141 10.036C15.4141 9.8109 15.4166 9.58584 15.4159 9.36078C15.4268 9.13309 15.4186 8.90489 15.3915 8.67855C15.3782 8.63134 15.3468 8.59127 15.3042 8.567C15.2615 8.54273 15.211 8.53621 15.1636 8.54884C15.1168 8.56296 15.0773 8.59458 15.0533 8.6371C15.0292 8.67963 15.0225 8.72979 15.0345 8.77714Z" fill="black"/>
<path d="M13.3117 9.53948C13.5979 9.53948 13.5984 9.09473 13.3117 9.09473C13.025 9.09473 13.025 9.53948 13.3117 9.53948Z" fill="black"/>
<path d="M13.9367 9.54289C14.2228 9.54289 14.2232 9.09814 13.9367 9.09814C13.6501 9.09814 13.65 9.54289 13.9367 9.54289Z" fill="black"/>
<path d="M14.5577 9.55998C14.844 9.55998 14.8444 9.11523 14.5577 9.11523C14.2711 9.11523 14.2712 9.55998 14.5577 9.55998Z" fill="black"/>
<path d="M23.1608 23.7074C23.1515 23.6537 23.1608 23.7241 23.1626 23.7588C23.1649 23.8089 23.1658 23.859 23.1666 23.9093C23.1685 24.0408 23.1681 24.1726 23.1674 24.3043C23.1661 24.5161 23.1614 24.728 23.161 24.9399L23.3463 24.7546C22.6 24.7546 21.8533 24.7425 21.107 24.7366C20.9835 24.7356 20.86 24.7341 20.7364 24.7339L20.9217 24.9192C20.9217 24.4817 20.9297 24.0442 20.9302 23.6067L20.7449 23.792C21.0284 23.7775 21.3168 23.7949 21.6003 23.7985C22.0455 23.8044 22.4907 23.8108 22.9357 23.8237C23.0212 23.8262 23.1067 23.8288 23.1922 23.833C23.2205 23.8343 23.2488 23.8356 23.2771 23.8376C23.3178 23.8405 23.3386 23.8445 23.2901 23.8369C23.3374 23.8484 23.3874 23.8414 23.4298 23.8173C23.4722 23.7932 23.5037 23.7538 23.518 23.7072C23.5307 23.6598 23.5242 23.6093 23.4999 23.5666C23.4757 23.5239 23.4355 23.4925 23.3883 23.4793C23.0687 23.4451 22.7472 23.4323 22.426 23.441C21.9801 23.4323 21.5342 23.4261 21.0884 23.4225C20.9743 23.4214 20.8587 23.4157 20.7446 23.4215C20.6958 23.4224 20.6491 23.4422 20.6146 23.4768C20.58 23.5114 20.5602 23.558 20.5593 23.6068C20.5593 24.0444 20.5511 24.4819 20.5508 24.9194C20.5515 24.9683 20.5712 25.0151 20.6058 25.0497C20.6404 25.0843 20.6872 25.104 20.7361 25.1047C21.4848 25.1055 22.2336 25.1169 22.9823 25.1228C23.1035 25.1238 23.2247 25.1254 23.3458 25.1254C23.3948 25.1247 23.4415 25.1049 23.4761 25.0703C23.5107 25.0357 23.5305 24.989 23.5312 24.9401C23.5312 24.7195 23.5365 24.4988 23.5376 24.2781C23.5504 24.055 23.5437 23.8311 23.5177 23.6091C23.5044 23.5618 23.473 23.5218 23.4303 23.4975C23.3877 23.4732 23.3372 23.4667 23.2898 23.4793C23.2431 23.4934 23.2036 23.525 23.1795 23.5675C23.1555 23.61 23.1488 23.6601 23.1608 23.7074Z" fill="black"/>
<path d="M21.7023 24.4985C21.9884 24.4985 21.9889 24.0537 21.7023 24.0537C21.4157 24.0537 21.4156 24.4985 21.7023 24.4985Z" fill="black"/>
<path d="M22.3517 24.5087C22.6378 24.5087 22.6383 24.064 22.3517 24.064C22.0651 24.064 22.065 24.5087 22.3517 24.5087Z" fill="black"/>
<path d="M6.2264 9.14004C6.19542 9.13811 6.16486 9.13187 6.1356 9.12151C6.14088 9.12438 6.12967 9.11169 6.12216 9.0989C6.09636 9.05176 6.08026 8.99994 6.07482 8.94648C6.05848 8.75664 6.05538 8.5659 6.06555 8.37563C6.0674 7.96998 6.07241 7.56442 6.07787 7.15877C6.08059 6.96284 6.08319 6.76681 6.08566 6.57069C6.0733 6.3617 6.07951 6.15203 6.10419 5.94415C6.14687 5.78079 6.22518 5.6289 6.33351 5.4994C6.43025 5.36384 6.52809 5.22856 6.61472 5.08643C6.73944 4.88259 6.41903 4.69598 6.29469 4.89936C6.14236 5.14869 5.92407 5.37292 5.81149 5.6432C5.67704 5.96536 5.71791 6.33636 5.71355 6.67798C5.70429 7.38986 5.67111 8.10702 5.69502 8.81834C5.70503 9.11484 5.78564 9.45044 6.12726 9.49704C6.17464 9.50843 6.22457 9.50136 6.26692 9.47727C6.30927 9.45317 6.34087 9.41387 6.35529 9.36732C6.36799 9.31991 6.3615 9.26939 6.33722 9.22673C6.31294 9.18406 6.27282 9.15268 6.22557 9.13939L6.2264 9.14004Z" fill="black"/>
<path d="M7.16728 5.11451C7.2478 5.22903 7.33203 5.34078 7.41292 5.45493C7.50983 5.59197 7.61963 5.71613 7.66309 5.88179C7.71433 6.07526 7.68866 6.29773 7.69088 6.49675C7.69342 6.70677 7.69617 6.91661 7.69913 7.12626C7.70478 7.54321 7.71006 7.961 7.71182 8.37832C7.72655 8.58077 7.72473 8.78408 7.70636 8.98624C7.69971 9.02936 7.67786 9.0687 7.64477 9.09714C7.61167 9.12558 7.5695 9.14126 7.52586 9.14134C7.28755 9.14542 7.28681 9.51604 7.52586 9.51197C7.66447 9.51013 7.79745 9.45683 7.89896 9.36243C8.00047 9.26803 8.06326 9.13927 8.07513 9.00115C8.0877 8.83044 8.09049 8.65915 8.08347 8.48812C8.08285 8.29484 8.08161 8.10159 8.07976 7.90837C8.07633 7.54386 8.07096 7.17926 8.06614 6.81503C8.06361 6.62873 8.06132 6.44236 8.05928 6.25594C8.06955 6.07264 8.04916 5.88892 7.99897 5.71233C7.89704 5.42324 7.66235 5.17631 7.48732 4.92725C7.3513 4.73351 7.02978 4.91854 7.16728 5.11432V5.11451Z" fill="black"/>
<path d="M6.52933 4.75059C6.51928 4.75138 6.50917 4.75101 6.49921 4.74948C6.50283 4.75281 6.53628 4.75874 6.51154 4.75087C6.46521 4.7366 6.53461 4.76634 6.5132 4.753C6.5537 4.7782 6.54499 4.77968 6.5347 4.76884C6.56667 4.80238 6.56111 4.8059 6.55323 4.79173C6.57584 4.83203 6.57037 4.83639 6.56565 4.81841C6.56046 4.79858 6.57111 4.87484 6.57047 4.85075C6.56963 4.81878 6.56639 4.87104 6.56537 4.87938C6.56769 4.86002 6.57195 4.84074 6.57334 4.82138C6.57603 4.78552 6.57334 4.74864 6.57334 4.71269C6.57334 4.57241 6.57362 4.43213 6.57417 4.29185C6.57417 4.28425 6.57417 4.27665 6.57417 4.26896C6.57417 4.24561 6.58677 4.23903 6.57047 4.28647C6.57408 4.27673 6.57654 4.26659 6.57779 4.25627C6.57723 4.25497 6.55842 4.30417 6.56852 4.27749C6.57102 4.27109 6.58705 4.24589 6.56852 4.27461C6.54684 4.30964 6.58446 4.26257 6.55518 4.28907C6.52312 4.31807 6.57603 4.27823 6.54045 4.29833L6.52812 4.30371C6.54332 4.30019 6.54285 4.29982 6.52692 4.30232C6.52766 4.30491 6.49282 4.30232 6.5297 4.30343C6.5423 4.30343 6.55499 4.30343 6.56769 4.30343H7.1693C7.17959 4.30343 7.19006 4.30343 7.20034 4.30343C7.21331 4.30297 7.2337 4.30982 7.1895 4.30074C7.20396 4.30371 7.21396 4.31362 7.17597 4.29287C7.1883 4.29954 7.19793 4.30992 7.16245 4.2798C7.16828 4.28471 7.18783 4.30602 7.1655 4.28073C7.14493 4.25729 7.15985 4.27545 7.16411 4.28342C7.16282 4.2811 7.15105 4.23774 7.15383 4.26118C7.15465 4.266 7.15589 4.27075 7.15754 4.27536C7.16263 4.28925 7.14984 4.31112 7.15401 4.24533C7.15235 4.27313 7.15522 4.30158 7.15522 4.32872C7.15522 4.48105 7.15537 4.63338 7.15568 4.7857C7.15568 4.80081 7.15429 4.81674 7.15568 4.83203C7.15689 4.84917 7.16949 4.77375 7.15679 4.81239C7.15049 4.83148 7.17848 4.76819 7.16773 4.78598C7.15698 4.80377 7.20182 4.74966 7.18163 4.76884C7.16143 4.78802 7.19951 4.75504 7.19932 4.75513C7.1757 4.77097 7.21387 4.74586 7.21646 4.74836C7.21554 4.74753 7.19506 4.75578 7.19358 4.75374C7.1921 4.7517 7.23388 4.75198 7.20062 4.7504C7.18857 4.74985 7.17625 4.7504 7.16421 4.7504H6.52933C6.48018 4.7504 6.43304 4.76993 6.39829 4.80468C6.36354 4.83943 6.34401 4.88657 6.34401 4.93571C6.34401 4.98486 6.36354 5.032 6.39829 5.06675C6.43304 5.1015 6.48018 5.12103 6.52933 5.12103H7.17023C7.24825 5.12552 7.32595 5.10795 7.39446 5.07034C7.43516 5.0438 7.46861 5.00754 7.49179 4.96484C7.51497 4.92213 7.52715 4.87432 7.52723 4.82573C7.53307 4.66822 7.52723 4.50894 7.52677 4.35115C7.53356 4.26678 7.52039 4.182 7.48832 4.10366C7.46236 4.05324 7.42326 4.01077 7.37514 3.98076C7.32702 3.95075 7.27168 3.93431 7.21498 3.93318C7.11491 3.92752 7.01318 3.93318 6.91302 3.93318H6.56574C6.49041 3.92828 6.41531 3.94582 6.34994 3.98358C6.30609 4.0141 6.27008 4.05455 6.24483 4.10163C6.21958 4.14871 6.20582 4.2011 6.20466 4.25451C6.19363 4.41869 6.20271 4.58659 6.20309 4.75105C6.20132 4.77381 6.20132 4.79667 6.20309 4.81943C6.19975 4.79905 6.21133 4.75883 6.20864 4.77783C6.20596 4.79682 6.20253 4.81489 6.20095 4.83398C6.19885 4.86634 6.20268 4.8988 6.21226 4.92978C6.25303 5.06877 6.39757 5.11917 6.52923 5.12149C6.57838 5.12149 6.62552 5.10197 6.66027 5.06721C6.69502 5.03246 6.71455 4.98533 6.71455 4.93618C6.71455 4.88703 6.69502 4.8399 6.66027 4.80514C6.62552 4.77039 6.57838 4.75087 6.52923 4.75087L6.52933 4.75059Z" fill="black"/>
<path d="M5.95831 6.68809C6.58466 6.68809 7.21102 6.68605 7.83737 6.68605C8.07587 6.68605 8.07624 6.31543 7.83737 6.31543C7.21102 6.31543 6.58466 6.31747 5.95831 6.31747C5.71981 6.31747 5.71944 6.68809 5.95831 6.68809Z" fill="black"/>
<path d="M5.91133 7.75801C6.56215 7.73883 7.21352 7.75069 7.86433 7.76727C8.10292 7.77339 8.10274 7.40276 7.86433 7.39665C7.21352 7.37997 6.56215 7.36811 5.91133 7.38738C5.6733 7.39442 5.67228 7.76505 5.91133 7.75801Z" fill="black"/>
<path d="M10.1942 5.1145C10.2716 5.22458 10.3524 5.33215 10.4304 5.44176C10.5225 5.55082 10.6009 5.67071 10.664 5.79877C10.7324 5.97305 10.7145 6.16402 10.7165 6.34739C10.7187 6.54616 10.7212 6.74485 10.7238 6.94344C10.7289 7.3426 10.7342 7.74186 10.7372 8.14111C10.7388 8.34255 10.7397 8.54398 10.74 8.74542C10.74 8.83761 10.7427 8.93073 10.7383 9.02246C10.7406 9.0676 10.7326 9.11268 10.715 9.15431C10.6545 9.24826 10.4463 9.24039 10.351 9.24113C10.2457 9.24187 10.1404 9.24113 10.0352 9.24113C9.80421 9.25285 9.57273 9.25053 9.34203 9.23418C9.28149 9.22886 9.22211 9.2143 9.16598 9.191C9.1279 9.17302 9.12948 9.16543 9.11734 9.11993C9.08618 8.94337 9.07799 8.76351 9.09297 8.58484C9.09427 8.17963 9.09779 7.77451 9.10353 7.36947C9.10631 7.14302 9.10918 6.9166 9.11215 6.69021C9.11493 6.47043 9.10437 6.24621 9.12141 6.02707C9.14443 5.84308 9.22066 5.6698 9.34073 5.52849C9.44627 5.38497 9.55004 5.23848 9.64298 5.08643C9.76769 4.88259 9.44719 4.69598 9.32294 4.89936C9.13448 5.20772 8.84938 5.48189 8.77507 5.84602C8.7445 6.05935 8.73414 6.27508 8.74412 6.49035C8.74152 6.71804 8.73868 6.94563 8.73559 7.17314C8.72985 7.62104 8.72448 8.06894 8.72281 8.51665C8.7216 8.82881 8.64581 9.34453 8.98753 9.51465C9.24001 9.64038 9.54346 9.61147 9.81726 9.61147C10.0977 9.61147 10.4055 9.64335 10.68 9.57562C10.7645 9.56033 10.8439 9.52443 10.9112 9.47109C10.9785 9.41775 11.0315 9.34863 11.0657 9.26985C11.1314 9.10047 11.1113 8.89923 11.111 8.7216C11.1104 8.27333 11.1058 7.82516 11.1004 7.37698C11.0973 7.1299 11.0942 6.88263 11.0911 6.63518C11.1009 6.38707 11.0939 6.13858 11.0701 5.89142C11.0135 5.51793 10.725 5.2256 10.5148 4.92632C10.3787 4.73258 10.0572 4.91761 10.1947 5.11339L10.1942 5.1145Z" fill="black"/>
<path d="M9.55695 4.75059C9.54693 4.75138 9.53686 4.75101 9.52693 4.74948C9.53054 4.75281 9.56399 4.75874 9.53925 4.75087C9.49292 4.7366 9.56223 4.76634 9.54092 4.753C9.58132 4.7782 9.5727 4.77968 9.56242 4.76884C9.59429 4.80238 9.58882 4.8059 9.58095 4.79173C9.60355 4.83203 9.59818 4.83639 9.59346 4.81841C9.58817 4.79858 9.59883 4.87484 9.59818 4.85075C9.59735 4.81878 9.5942 4.87104 9.59318 4.87938C9.59549 4.86002 9.59966 4.84074 9.60115 4.82138C9.60374 4.78552 9.60115 4.74864 9.60115 4.71269C9.60115 4.57241 9.60139 4.43213 9.60189 4.29185C9.60189 4.28425 9.60189 4.27665 9.60189 4.26896C9.60189 4.24561 9.61458 4.23903 9.59818 4.28647C9.60183 4.27673 9.60431 4.26659 9.60559 4.25627C9.60495 4.25497 9.58614 4.30417 9.59633 4.27749C9.59883 4.27109 9.6143 4.24589 9.59633 4.27461C9.57465 4.30964 9.61226 4.26257 9.58299 4.28907C9.55093 4.31807 9.60374 4.27823 9.56816 4.29833L9.55593 4.30371C9.57103 4.30019 9.57066 4.29982 9.55473 4.30232C9.55537 4.30491 9.52054 4.30232 9.5575 4.30343C9.57011 4.30343 9.5828 4.30343 9.5954 4.30343H10.1971C10.2074 4.30343 10.2178 4.30343 10.2281 4.30343C10.2411 4.30297 10.2614 4.30982 10.2173 4.30074C10.2317 4.30371 10.2417 4.31362 10.2038 4.29287C10.2161 4.29954 10.2256 4.30992 10.1902 4.2798C10.196 4.28471 10.2156 4.30602 10.1933 4.28073C10.1726 4.25729 10.1877 4.27545 10.1918 4.28342C10.1906 4.2811 10.1789 4.23774 10.1816 4.26118C10.1824 4.266 10.1836 4.27074 10.1852 4.27536C10.1904 4.28925 10.1777 4.31112 10.1818 4.24533C10.1801 4.27313 10.183 4.30158 10.183 4.32872C10.183 4.48105 10.183 4.63338 10.183 4.7857C10.183 4.80081 10.1815 4.81674 10.183 4.83203C10.1843 4.84917 10.1969 4.77375 10.1842 4.81239C10.1779 4.83148 10.2059 4.76819 10.1952 4.78598C10.1844 4.80377 10.2293 4.74966 10.209 4.76884C10.1887 4.78802 10.2268 4.75513 10.2268 4.75513C10.2031 4.77097 10.2413 4.74586 10.2438 4.74836C10.243 4.74753 10.2225 4.75578 10.221 4.75374C10.2195 4.7517 10.2612 4.75198 10.2281 4.7504C10.2159 4.74985 10.2037 4.7504 10.1916 4.7504H9.55695C9.5078 4.7504 9.46067 4.76993 9.42591 4.80468C9.39116 4.83943 9.37164 4.88657 9.37164 4.93571C9.37164 4.98486 9.39116 5.032 9.42591 5.06675C9.46067 5.1015 9.5078 5.12103 9.55695 5.12103H10.1979C10.2759 5.12553 10.3536 5.10797 10.4221 5.07034C10.4628 5.04383 10.4963 5.00758 10.5195 4.96487C10.5427 4.92215 10.5548 4.87433 10.5549 4.82573C10.5608 4.66822 10.5549 4.50894 10.5549 4.35115C10.5616 4.26677 10.5484 4.18199 10.5163 4.10366C10.4904 4.05323 10.4513 4.01076 10.4032 3.98075C10.3551 3.95073 10.2998 3.93429 10.2431 3.93318C10.143 3.92752 10.0413 3.93318 9.9411 3.93318H9.59299C9.51766 3.92829 9.44257 3.94583 9.3772 3.98358C9.33337 4.01411 9.29737 4.05457 9.27214 4.10165C9.24691 4.14873 9.23316 4.2011 9.232 4.25451C9.22098 4.41869 9.23006 4.58659 9.23043 4.75105C9.22867 4.77381 9.22867 4.79667 9.23043 4.81943C9.227 4.79905 9.23858 4.75883 9.2359 4.77783C9.23321 4.79682 9.22987 4.81489 9.2283 4.83398C9.22617 4.86633 9.22996 4.8988 9.23951 4.92978C9.28028 5.06877 9.42482 5.11917 9.55649 5.12149C9.60563 5.12149 9.65277 5.10197 9.68752 5.06721C9.72227 5.03246 9.7418 4.98533 9.7418 4.93618C9.7418 4.88703 9.72227 4.8399 9.68752 4.80514C9.65277 4.77039 9.60563 4.75087 9.55649 4.75087L9.55695 4.75059Z" fill="black"/>
<path d="M8.98471 6.68809C9.61107 6.68809 10.2374 6.68605 10.8638 6.68605C11.1023 6.68605 11.1026 6.31543 10.8638 6.31543C10.2374 6.31543 9.61107 6.31747 8.98471 6.31747C8.74621 6.31747 8.74575 6.68809 8.98471 6.68809Z" fill="black"/>
<path d="M9.57203 5.84385C9.78644 5.84385 10.0008 5.84182 10.2152 5.84182C10.2644 5.84182 10.3115 5.82229 10.3463 5.78754C10.381 5.75279 10.4006 5.70565 10.4006 5.6565C10.4006 5.60736 10.381 5.56022 10.3463 5.52547C10.3115 5.49072 10.2644 5.47119 10.2152 5.47119C10.0008 5.47119 9.78644 5.47323 9.57203 5.47323C9.52288 5.47323 9.47575 5.49275 9.441 5.52751C9.40624 5.56226 9.38672 5.60939 9.38672 5.65854C9.38672 5.70769 9.40624 5.75482 9.441 5.78958C9.47575 5.82433 9.52288 5.84385 9.57203 5.84385Z" fill="black"/>
<path d="M8.93763 7.75801C9.58854 7.73883 10.2399 7.75069 10.8907 7.76727C11.1293 7.77339 11.1291 7.40276 10.8907 7.39665C10.2399 7.37997 9.58854 7.36811 8.93763 7.38738C8.69969 7.39442 8.69867 7.76505 8.93763 7.75801Z" fill="black"/>
<path d="M18.9226 12.7044C18.9226 13.846 18.9224 14.9876 18.9219 16.1292C18.9219 16.3183 18.9219 16.5073 18.9219 16.6964C18.9219 16.9349 19.2925 16.9353 19.2925 16.6964C19.2925 15.6031 19.2927 14.5094 19.2932 13.4154C19.2932 13.1785 19.2932 12.9415 19.2932 12.7044C19.2932 12.4659 18.9226 12.4655 18.9226 12.7044Z" fill="black"/>
<path d="M22.7015 13.2706C21.7203 13.2521 20.7385 13.2569 19.7572 13.2569C19.5187 13.2569 19.5182 13.6275 19.7572 13.6275C20.7385 13.6275 21.7203 13.6232 22.7015 13.6412C22.9401 13.6457 22.9401 13.2751 22.7015 13.2706Z" fill="black"/>
<path d="M20.7249 14.1347C20.3543 14.1347 19.9837 14.1219 19.613 14.1216C19.5639 14.1216 19.5168 14.1411 19.482 14.1759C19.4473 14.2106 19.4277 14.2577 19.4277 14.3069C19.4277 14.356 19.4473 14.4032 19.482 14.4379C19.5168 14.4727 19.5639 14.4922 19.613 14.4922C19.9837 14.4922 20.3543 14.5051 20.7249 14.5054C20.7741 14.5054 20.8212 14.4858 20.856 14.4511C20.8907 14.4163 20.9102 14.3692 20.9102 14.3201C20.9102 14.2709 20.8907 14.2238 20.856 14.189C20.8212 14.1543 20.7741 14.1347 20.7249 14.1347Z" fill="black"/>
<path d="M20.4089 14.3319C20.1687 14.3319 19.9285 14.319 19.6882 14.3188C19.6391 14.3188 19.592 14.3384 19.5572 14.3731C19.5225 14.4079 19.5029 14.455 19.5029 14.5042C19.5029 14.5533 19.5225 14.6004 19.5572 14.6352C19.592 14.6699 19.6391 14.6895 19.6882 14.6895C19.9285 14.6895 20.1687 14.7023 20.4089 14.7025C20.4581 14.7025 20.5052 14.683 20.54 14.6483C20.5747 14.6135 20.5942 14.5664 20.5942 14.5172C20.5942 14.4681 20.5747 14.4209 20.54 14.3862C20.5052 14.3514 20.4581 14.3319 20.4089 14.3319Z" fill="black"/>
<path d="M15.3851 14.2168C15.0145 14.2168 14.6438 14.2039 14.2732 14.2036C14.2241 14.2036 14.1769 14.2231 14.1422 14.2579C14.1074 14.2926 14.0879 14.3398 14.0879 14.3889C14.0879 14.4381 14.1074 14.4852 14.1422 14.52C14.1769 14.5547 14.2241 14.5742 14.2732 14.5742C14.6438 14.5742 15.0145 14.5871 15.3851 14.5874C15.4342 14.5874 15.4814 14.5679 15.5161 14.5331C15.5509 14.4984 15.5704 14.4512 15.5704 14.4021C15.5704 14.3529 15.5509 14.3058 15.5161 14.271C15.4814 14.2363 15.4342 14.2168 15.3851 14.2168Z" fill="black"/>
<path d="M15.0896 14.4349C14.8493 14.4349 14.6092 14.4221 14.3689 14.4219C14.3198 14.4219 14.2726 14.4414 14.2379 14.4762C14.2031 14.5109 14.1836 14.558 14.1836 14.6072C14.1836 14.6563 14.2031 14.7035 14.2379 14.7382C14.2726 14.773 14.3198 14.7925 14.3689 14.7925C14.6092 14.7925 14.8493 14.8053 15.0896 14.8056C15.1387 14.8056 15.1859 14.786 15.2206 14.7513C15.2554 14.7165 15.2749 14.6694 15.2749 14.6203C15.2749 14.5711 15.2554 14.524 15.2206 14.4892C15.1859 14.4545 15.1387 14.4349 15.0896 14.4349Z" fill="black"/>
<path d="M19.1463 12.8897C20.3264 12.8897 21.5065 12.8998 22.6865 12.9048C22.8837 12.9056 23.0809 12.9068 23.2781 12.9068L23.0928 12.7215C23.0941 13.7055 23.1234 14.6899 23.1453 15.6735C23.153 16.021 23.1612 16.3684 23.1614 16.716C23.1614 16.9545 23.532 16.955 23.532 16.716C23.5313 15.6454 23.4905 14.5741 23.474 13.5035C23.47 13.2429 23.4637 12.9821 23.4634 12.7215C23.4627 12.6726 23.4429 12.6259 23.4083 12.5913C23.3738 12.5567 23.3271 12.5369 23.2781 12.5362C22.1074 12.5362 20.9367 12.526 19.7665 12.5212C19.5599 12.5203 19.3533 12.5191 19.1468 12.519C18.9083 12.519 18.9079 12.8897 19.1468 12.8897H19.1463Z" fill="black"/>
<path d="M13.3633 12.6937C13.3633 13.8364 13.3706 14.9792 13.3745 16.1219C13.3751 16.3133 13.3761 16.5046 13.3762 16.6959C13.3762 16.9344 13.7468 16.9348 13.7468 16.6959C13.7468 15.6014 13.7388 14.5068 13.7355 13.4122C13.7347 13.1727 13.7342 12.9332 13.7339 12.6937C13.7339 12.4552 13.3633 12.4548 13.3633 12.6937Z" fill="black"/>
<path d="M17.1009 13.2702C16.1197 13.2534 15.1378 13.2424 14.1565 13.2564C13.9182 13.26 13.9176 13.6306 14.1565 13.6271C15.1378 13.6126 16.1197 13.624 17.1009 13.6408C17.3395 13.6449 17.3395 13.2742 17.1009 13.2702Z" fill="black"/>
<path d="M13.6422 12.8538C13.6157 12.8688 13.5152 12.8758 13.5867 12.8762C13.6177 12.8762 13.6488 12.8749 13.6799 12.8746C13.7787 12.8736 13.8777 12.8737 13.9764 12.8739C14.2896 12.8746 14.6029 12.877 14.9162 12.8796C15.6404 12.8854 16.3646 12.8925 17.0888 12.9008C17.303 12.903 17.5173 12.9064 17.7315 12.9065L17.5462 12.7212C17.5475 13.7052 17.5769 14.6896 17.5988 15.6732C17.6064 16.0207 17.6146 16.3682 17.6148 16.7157C17.6148 16.9542 17.9854 16.9547 17.9854 16.7157C17.9847 15.6451 17.9439 14.5738 17.9274 13.5032C17.9234 13.2426 17.9172 12.9819 17.9168 12.7212C17.9161 12.6723 17.8964 12.6256 17.8618 12.591C17.8272 12.5564 17.7805 12.5366 17.7315 12.5359C16.4899 12.5352 15.2488 12.5064 14.0074 12.5034C13.8952 12.5034 13.7829 12.5028 13.6707 12.504C13.5973 12.4962 13.5232 12.5064 13.4547 12.5338C13.2473 12.6514 13.4338 12.9717 13.6418 12.8538H13.6422Z" fill="black"/>
<path d="M17.9311 9.52974C18.4673 9.48536 18.3694 8.6913 18.3687 8.30816C18.368 7.86045 18.3673 7.41261 18.3667 6.96465C18.3667 6.71846 18.3147 6.41057 18.1281 6.23406C17.9549 6.07024 17.6926 6.33181 17.8661 6.49609C17.9801 6.60403 17.9958 6.81242 17.9958 6.9501C17.9958 7.10984 17.996 7.26961 17.9965 7.42941L17.9985 8.67471C17.9985 8.72715 17.9991 8.77969 17.9985 8.83223C17.9991 8.90034 17.9906 8.96822 17.973 9.03403C17.9627 9.07015 17.9482 9.1049 17.9296 9.13753C17.9111 9.17135 17.8868 9.16282 17.9307 9.15921C17.6947 9.17876 17.6926 9.54957 17.9307 9.52983L17.9311 9.52974Z" fill="black"/>
<path d="M16.1766 6.29319C15.9292 6.69467 15.9913 7.16555 15.9948 7.61549C15.9978 8.03429 16.0016 8.4531 16.0041 8.87191C16.0041 9.01088 16.0445 9.14685 16.1204 9.26327C16.1963 9.37969 16.3044 9.47154 16.4316 9.52763C16.646 9.62955 16.8343 9.3098 16.6186 9.20769C16.5643 9.18714 16.515 9.1551 16.4741 9.11376C16.4333 9.07243 16.4018 9.02277 16.3819 8.96818C16.3687 8.92546 16.3756 8.94862 16.375 8.91258C16.375 8.89405 16.375 8.87617 16.375 8.85801C16.374 8.6974 16.3729 8.53658 16.3716 8.37555C16.3685 7.94729 16.3654 7.51903 16.3624 7.09078C16.3624 7.02722 16.3609 6.96356 16.3613 6.9C16.367 6.75037 16.4137 6.60517 16.4962 6.48027C16.6217 6.27642 16.3017 6.09028 16.1762 6.29319H16.1766Z" fill="black"/>
<path d="M16.5586 6.19766C16.5567 6.24399 16.4129 6.25881 16.4788 6.26613C16.4953 6.26701 16.5118 6.26701 16.5284 6.26613H16.6882H17.1633H17.6387H17.8103C17.8294 6.26724 17.8485 6.26724 17.8675 6.26613C17.8914 6.26317 17.8763 6.27725 17.8596 6.26187C17.8987 6.29782 17.7995 6.22749 17.7983 6.20303C17.7993 6.25187 17.8191 6.29843 17.8537 6.33297C17.8882 6.36751 17.9348 6.38735 17.9836 6.38834C18.0326 6.38786 18.0795 6.36818 18.1141 6.33353C18.1488 6.29889 18.1684 6.25203 18.1689 6.20303C18.1726 6.13795 18.1544 6.07352 18.1175 6.01985C18.0805 5.96618 18.0267 5.92632 17.9646 5.90653C17.9138 5.89667 17.862 5.89313 17.8103 5.89597H17.4311L16.5717 5.89653C16.5357 5.89653 16.4992 5.89477 16.4631 5.89653C16.425 5.89778 16.3876 5.90666 16.353 5.92263C16.3184 5.9386 16.2874 5.96134 16.2618 5.9895C16.2361 6.01767 16.2164 6.0507 16.2037 6.08662C16.191 6.12255 16.1857 6.16065 16.188 6.19868C16.188 6.24783 16.2075 6.29496 16.2423 6.32971C16.2771 6.36447 16.3242 6.38399 16.3733 6.38399C16.4225 6.38399 16.4696 6.36447 16.5044 6.32971C16.5391 6.29496 16.5586 6.24783 16.5586 6.19868V6.19766Z" fill="black"/>
<path d="M16.3226 7.32213C16.9025 7.32213 17.4825 7.31231 18.0624 7.31203C18.3009 7.31203 18.3013 6.94141 18.0624 6.94141C17.4825 6.94141 16.9025 6.95114 16.3226 6.95151C16.0841 6.95151 16.0836 7.32213 16.3226 7.32213Z" fill="black"/>
<path d="M16.7625 8.78423C17.0491 8.78423 17.3357 8.77941 17.6223 8.77932C17.6715 8.77932 17.7186 8.75979 17.7533 8.72504C17.7881 8.69029 17.8076 8.64315 17.8076 8.594C17.8076 8.54486 17.7881 8.49772 17.7533 8.46297C17.7186 8.42822 17.6715 8.40869 17.6223 8.40869C17.3357 8.40869 17.0491 8.41342 16.7625 8.4136C16.7133 8.4136 16.6662 8.43313 16.6314 8.46788C16.5967 8.50263 16.5771 8.54977 16.5771 8.59891C16.5771 8.64806 16.5967 8.6952 16.6314 8.72995C16.6662 8.7647 16.7133 8.78423 16.7625 8.78423Z" fill="black"/>
<path d="M21.0502 9.52974C21.5865 9.48536 21.4885 8.6913 21.4878 8.30816C21.4871 7.86045 21.4865 7.41261 21.4858 6.96465C21.4858 6.71846 21.4339 6.41057 21.2473 6.23406C21.074 6.07024 20.8118 6.33181 20.9852 6.49609C21.0992 6.60403 21.115 6.81242 21.115 6.9501C21.115 7.10984 21.1152 7.26961 21.1156 7.42941C21.1163 7.84451 21.117 8.25961 21.1177 8.67471C21.1177 8.72715 21.1182 8.77969 21.1177 8.83223C21.1183 8.90034 21.1097 8.96823 21.0921 9.03403C21.0819 9.07016 21.0674 9.10492 21.0488 9.13753C21.0303 9.17135 21.006 9.16282 21.0498 9.15921C20.8138 9.17876 20.8118 9.54957 21.0498 9.52983L21.0502 9.52974Z" fill="black"/>
<path d="M19.2967 6.29322C19.0494 6.6947 19.1114 7.16558 19.1149 7.61551C19.1179 8.03432 19.1217 8.45312 19.1242 8.87193C19.1242 9.0109 19.1646 9.14686 19.2405 9.26328C19.3164 9.37969 19.4244 9.47155 19.5516 9.52766C19.7661 9.62958 19.9544 9.30982 19.7386 9.20772C19.6843 9.18715 19.635 9.15511 19.5942 9.11378C19.5534 9.07245 19.5219 9.02279 19.502 8.9682C19.4887 8.92549 19.4957 8.94865 19.495 8.91261C19.495 8.89408 19.495 8.87619 19.495 8.85803C19.494 8.69743 19.4929 8.53661 19.4916 8.37557C19.4885 7.94731 19.4855 7.51906 19.4824 7.0908C19.4824 7.02724 19.4809 6.96359 19.4813 6.90002C19.4874 6.75046 19.5343 6.60543 19.6172 6.48075C19.7426 6.27691 19.4226 6.09077 19.2971 6.29368L19.2967 6.29322Z" fill="black"/>
<path d="M19.6784 6.19766C19.6765 6.24399 19.5326 6.25881 19.5985 6.26613C19.615 6.26701 19.6316 6.26701 19.6481 6.26613H19.8079H20.2831H20.7586H20.9301C20.9491 6.26724 20.9682 6.26724 20.9873 6.26613C21.0112 6.26317 20.9965 6.27725 20.9795 6.26187C21.0185 6.29782 20.9192 6.22749 20.918 6.20303C20.9191 6.25186 20.9389 6.29841 20.9734 6.33294C21.008 6.36748 21.0545 6.38733 21.1034 6.38835C21.1524 6.38789 21.1992 6.36822 21.2339 6.33356C21.2685 6.29891 21.2882 6.25204 21.2887 6.20303C21.2923 6.13801 21.2743 6.07362 21.2374 6.01996C21.2005 5.9663 21.1468 5.9264 21.0848 5.90653C21.034 5.89667 20.9822 5.89312 20.9305 5.89597H20.5513L19.6919 5.89653C19.6559 5.89653 19.6193 5.89477 19.5833 5.89653C19.5452 5.89777 19.5078 5.90664 19.4732 5.9226C19.4386 5.93857 19.4076 5.96131 19.3819 5.98947C19.3563 6.01764 19.3365 6.05067 19.3238 6.0866C19.3112 6.12254 19.3058 6.16065 19.3081 6.19868C19.3081 6.24783 19.3277 6.29496 19.3624 6.32971C19.3972 6.36447 19.4443 6.38399 19.4935 6.38399C19.5426 6.38399 19.5897 6.36447 19.6245 6.32971C19.6592 6.29496 19.6788 6.24783 19.6788 6.19868L19.6784 6.19766Z" fill="black"/>
<path d="M19.4417 7.32213C20.0216 7.32213 20.6016 7.31231 21.1816 7.31203C21.42 7.31203 21.4205 6.94141 21.1816 6.94141C20.6016 6.94141 20.0216 6.95114 19.4417 6.95151C19.2032 6.95151 19.2028 7.32213 19.4417 7.32213Z" fill="black"/>
<path d="M19.8816 8.78423C20.1682 8.78423 20.4548 8.77941 20.7414 8.77932C20.7906 8.77932 20.8377 8.75979 20.8725 8.72504C20.9072 8.69029 20.9268 8.64315 20.9268 8.594C20.9268 8.54486 20.9072 8.49772 20.8725 8.46297C20.8377 8.42822 20.7906 8.40869 20.7414 8.40869C20.4548 8.40869 20.1682 8.41342 19.8816 8.4136C19.8325 8.4136 19.7853 8.43313 19.7506 8.46788C19.7158 8.50263 19.6963 8.54977 19.6963 8.59891C19.6963 8.64806 19.7158 8.6952 19.7506 8.72995C19.7853 8.7647 19.8325 8.78423 19.8816 8.78423Z" fill="black"/>
<path d="M24.0433 6.49646C24.1452 6.59264 24.1715 6.79527 24.173 6.91286C24.1744 7.01885 24.173 7.12494 24.173 7.23094L24.1747 8.32169C24.1747 8.47328 24.1749 8.62486 24.1753 8.77645C24.1825 8.88683 24.1755 8.99767 24.1547 9.1063C24.1375 9.15327 24.1175 9.19919 24.0949 9.2438C24.0809 9.28087 24.0687 9.25233 24.1077 9.24834C24.1063 9.24834 24.1047 9.24834 24.1033 9.24834C24.0718 9.25066 24.0394 9.24899 24.0078 9.24927L23.5639 9.25363L22.7016 9.26206L22.795 9.28735C22.7389 9.26651 22.6882 9.23323 22.6468 9.18999C22.6054 9.14676 22.5743 9.09471 22.5559 9.03774C22.5466 9.00179 22.552 9.02745 22.5514 8.98974C22.5514 8.9701 22.5514 8.95036 22.5514 8.93072C22.5504 8.76153 22.5493 8.59228 22.5479 8.42296C22.5448 7.98075 22.5418 7.53847 22.5387 7.09613C22.5387 7.03257 22.5374 6.9691 22.5377 6.90553C22.5428 6.75395 22.5898 6.60675 22.6735 6.48024C22.7989 6.2764 22.4789 6.09025 22.3534 6.29317C22.2366 6.47646 22.1722 6.68823 22.1671 6.90553C22.1666 6.99819 22.168 7.08992 22.1686 7.18202C22.1706 7.49705 22.1728 7.81208 22.1751 8.12711C22.1769 8.39495 22.1788 8.66279 22.1805 8.93063C22.1771 9.02576 22.1918 9.12067 22.224 9.21026C22.2967 9.39326 22.4927 9.6199 22.7036 9.63259C22.9161 9.64538 23.1347 9.62833 23.3475 9.62629C23.5929 9.62388 23.8394 9.62786 24.0846 9.61906C24.4532 9.60581 24.5457 9.18895 24.5462 8.88708C24.5466 8.63589 24.5455 8.3846 24.5451 8.13341C24.5446 7.79139 24.5441 7.44946 24.5436 7.10762C24.5436 6.81112 24.5359 6.45254 24.3049 6.23406C24.1316 6.07024 23.8694 6.33181 24.0428 6.49609L24.0433 6.49646Z" fill="black"/>
<path d="M22.736 6.19766C22.7342 6.24399 22.5903 6.25881 22.6561 6.26613C22.6727 6.26701 22.6892 6.26701 22.7057 6.26613H22.8655H23.3407H23.8162H23.9877C24.0067 6.26724 24.0258 6.26724 24.0449 6.26613C24.0688 6.26317 24.0541 6.27725 24.0371 6.26187C24.0761 6.29782 23.9769 6.22749 23.9757 6.20303C23.9767 6.25186 23.9965 6.29841 24.0311 6.33294C24.0656 6.36748 24.1121 6.38733 24.161 6.38835C24.21 6.38789 24.2568 6.36822 24.2915 6.33356C24.3262 6.29891 24.3458 6.25204 24.3463 6.20303C24.3499 6.13801 24.3319 6.07362 24.295 6.01996C24.2581 5.9663 24.2045 5.9264 24.1424 5.90653C24.0916 5.89667 24.0398 5.89312 23.9881 5.89597H23.6089L22.7495 5.89653C22.7135 5.89653 22.6769 5.89477 22.6409 5.89653C22.6029 5.89777 22.5654 5.90664 22.5308 5.9226C22.4962 5.93857 22.4652 5.96131 22.4395 5.98947C22.4139 6.01764 22.3941 6.05067 22.3815 6.0866C22.3688 6.12254 22.3634 6.16065 22.3658 6.19868C22.3658 6.24783 22.3853 6.29496 22.42 6.32971C22.4548 6.36447 22.5019 6.38399 22.5511 6.38399C22.6002 6.38399 22.6474 6.36447 22.6821 6.32971C22.7169 6.29496 22.7364 6.24783 22.7364 6.19868L22.736 6.19766Z" fill="black"/>
<path d="M22.4993 7.32213C23.0793 7.32213 23.6592 7.31231 24.2392 7.31203C24.4776 7.31203 24.4781 6.94141 24.2392 6.94141C23.6592 6.94141 23.0793 6.95114 22.4993 6.95151C22.2608 6.95151 22.2605 7.32213 22.4993 7.32213Z" fill="black"/>
<path d="M22.9402 8.78423C23.2265 8.78423 23.5128 8.77941 23.7991 8.77932C23.8483 8.77932 23.8954 8.75979 23.9302 8.72504C23.9649 8.69029 23.9844 8.64315 23.9844 8.594C23.9844 8.54486 23.9649 8.49772 23.9302 8.46297C23.8954 8.42822 23.8483 8.40869 23.7991 8.40869C23.5128 8.40869 23.2265 8.41342 22.9402 8.4136C22.891 8.4136 22.8439 8.43313 22.8092 8.46788C22.7744 8.50263 22.7549 8.54977 22.7549 8.59891C22.7549 8.64806 22.7744 8.6952 22.8092 8.72995C22.8439 8.7647 22.891 8.78423 22.9402 8.78423Z" fill="black"/>
<path d="M23.4206 15.054C23.253 14.8559 22.9417 14.7903 22.6991 14.7465C22.4715 14.6999 22.2395 14.6777 22.0071 14.6804C21.8556 14.6818 21.7069 14.7204 21.5739 14.7929C21.4409 14.8654 21.3279 14.9696 21.2447 15.0961C21.0776 15.3418 21.0077 15.6407 21.0485 15.935C21.0581 16.0991 21.1112 16.2578 21.2023 16.3947C21.3145 16.5557 21.4828 16.6691 21.6743 16.7126C21.907 16.7614 22.0064 16.4043 21.7728 16.3552C21.6718 16.3341 21.5812 16.2791 21.5159 16.1993C21.5006 16.1789 21.4867 16.1575 21.4743 16.1352C21.47 16.1278 21.4465 16.0782 21.4558 16.1023C21.465 16.1264 21.452 16.0904 21.4501 16.0829C21.4379 16.0349 21.4271 15.9864 21.4195 15.9375C21.3789 15.7169 21.4262 15.4892 21.5514 15.3031C21.5617 15.2872 21.5722 15.2714 21.5831 15.256C21.5991 15.2335 21.5775 15.2598 21.6029 15.2311C21.6313 15.1975 21.6637 15.1676 21.6995 15.142C21.7943 15.0827 21.9039 15.0511 22.0158 15.0507C22.1959 15.0488 22.3759 15.0639 22.5532 15.0958C22.6811 15.1155 22.8072 15.1453 22.9303 15.185C22.9776 15.1987 23.0231 15.218 23.0658 15.2425C23.0869 15.2537 23.1071 15.2665 23.1264 15.2806C23.101 15.2612 23.1511 15.3074 23.1584 15.3161C23.1934 15.3505 23.2404 15.3698 23.2894 15.3698C23.3385 15.3698 23.3855 15.3505 23.4205 15.3161C23.4543 15.2809 23.4732 15.2339 23.4732 15.185C23.4732 15.1362 23.4543 15.0892 23.4205 15.054H23.4206Z" fill="black"/>
<path d="M22.1521 15.7624C22.1548 15.7563 22.1583 15.7506 22.1623 15.7453L22.1334 15.7828C22.1381 15.7775 22.1432 15.7726 22.1487 15.7682L22.1117 15.7972C22.1211 15.7903 22.1313 15.7845 22.142 15.7797L22.0977 15.7983C22.1195 15.7893 22.1424 15.7833 22.1659 15.7803L22.1167 15.7869C22.1389 15.7842 22.1614 15.7842 22.1837 15.7869L22.1344 15.7803C22.1913 15.7896 22.2424 15.8197 22.2986 15.8317C22.3877 15.8487 22.4796 15.8421 22.5654 15.8126C22.6117 15.799 22.6514 15.7687 22.6766 15.7275C22.6952 15.6957 22.7039 15.659 22.7016 15.6222C22.6993 15.5854 22.686 15.5501 22.6636 15.5209C22.6411 15.4917 22.6104 15.4698 22.5754 15.4581C22.5405 15.4464 22.5028 15.4454 22.4673 15.4553C22.4366 15.4652 22.4052 15.4728 22.3734 15.4779L22.4227 15.4712C22.4039 15.4733 22.385 15.4733 22.3662 15.4712L22.4154 15.4778C22.3676 15.4666 22.3208 15.4519 22.2752 15.4338C22.2294 15.4186 22.1812 15.4124 22.1331 15.4152C22.0714 15.4186 22.0111 15.4339 21.9553 15.4602C21.9027 15.484 21.8595 15.5247 21.8328 15.5758C21.8092 15.6195 21.8026 15.6703 21.8142 15.7186C21.8274 15.7652 21.8578 15.8049 21.8994 15.8298C21.9208 15.8421 21.9444 15.8502 21.969 15.8533C21.9935 15.8565 22.0184 15.8548 22.0423 15.8483C22.0654 15.8422 22.0872 15.8315 22.1062 15.8168C22.1252 15.8022 22.1411 15.784 22.153 15.7631L22.1521 15.7624Z" fill="black"/>
<path d="M6.01711 19.91C6.00349 21.1202 6.00478 22.3309 6.00339 23.5413C6.00339 23.7054 6.00324 23.8695 6.00293 24.0335C6.00293 24.272 6.37355 24.2724 6.37355 24.0335C6.37355 22.9626 6.37609 21.8917 6.38115 20.8207C6.38263 20.5171 6.3843 20.2135 6.38773 19.91C6.39042 19.6714 6.01979 19.6712 6.01711 19.91Z" fill="black"/>
<path d="M9.33332 19.9228C9.33332 19.6733 9.33925 19.424 9.33962 19.1746C9.33893 19.1256 9.31918 19.0789 9.28458 19.0443C9.24997 19.0097 9.20324 18.9899 9.15431 18.9892C8.17604 18.9892 7.19778 18.98 6.21943 18.98C6.1705 18.9807 6.12378 19.0005 6.08919 19.0351C6.05459 19.0696 6.03483 19.1164 6.03411 19.1653C6.03263 19.4161 6.01725 19.6667 6.0166 19.9177C6.01595 20.1562 6.38658 20.1565 6.38723 19.9177C6.38788 19.6667 6.40326 19.4161 6.40474 19.1653L6.21943 19.3506C7.19778 19.3506 8.17604 19.3599 9.15431 19.3599L8.969 19.1746C8.969 19.424 8.96288 19.6733 8.96269 19.9228C8.96269 20.1613 9.33332 20.1616 9.33332 19.9228Z" fill="black"/>
<path d="M9.33982 24.0904C9.33982 22.9438 9.33796 21.7972 9.33426 20.6505C9.33389 20.4079 9.33364 20.1653 9.33351 19.9227C9.33351 19.6842 8.96289 19.6838 8.96289 19.9227C8.96289 21.1433 8.96474 22.3638 8.96845 23.5843C8.96845 23.753 8.9687 23.9217 8.96919 24.0904C8.96919 24.3289 9.33982 24.3293 9.33982 24.0904Z" fill="black"/>
<path d="M6.22296 20.1016C7.17555 20.1016 8.12824 20.0923 9.08084 20.0923C9.31934 20.0923 9.31971 19.7217 9.08084 19.7217C8.12824 19.7217 7.17555 19.7309 6.22296 19.7309C5.98446 19.7309 5.98409 20.1016 6.22296 20.1016Z" fill="black"/>
<path d="M6.56422 5.84385C6.77862 5.84385 6.99303 5.84182 7.20744 5.84182C7.25658 5.84182 7.30372 5.82229 7.33847 5.78754C7.37323 5.75279 7.39275 5.70565 7.39275 5.6565C7.39275 5.60736 7.37323 5.56022 7.33847 5.52547C7.30372 5.49072 7.25658 5.47119 7.20744 5.47119C6.99303 5.47119 6.77862 5.47323 6.56422 5.47323C6.51507 5.47323 6.46794 5.49275 6.43318 5.52751C6.39843 5.56226 6.37891 5.60939 6.37891 5.65854C6.37891 5.70769 6.39843 5.75482 6.43318 5.78958C6.46794 5.82433 6.51507 5.84385 6.56422 5.84385Z" fill="black"/>
<path d="M13.6711 19.9228C13.6711 19.6733 13.677 19.424 13.6775 19.1746C13.6768 19.1256 13.6571 19.0789 13.6225 19.0443C13.5879 19.0097 13.5411 18.9899 13.4922 18.9892C12.5139 18.9892 11.5356 18.98 10.5573 18.98C10.5084 18.9807 10.4617 19.0004 10.427 19.035C10.3924 19.0696 10.3727 19.1164 10.372 19.1653C10.3705 19.4161 10.3551 19.6667 10.3545 19.9177C10.3538 20.1562 10.7244 20.1565 10.7251 19.9177C10.7258 19.6667 10.7411 19.4161 10.7426 19.1653L10.5573 19.3506C11.5356 19.3506 12.5139 19.3599 13.4922 19.3599L13.3069 19.1746C13.3069 19.424 13.3008 19.6733 13.3005 19.9228C13.3005 20.1613 13.6711 20.1616 13.6711 19.9228Z" fill="black"/>
<path d="M13.3006 20.0881C13.3006 21.3087 13.3025 22.5292 13.3062 23.7497C13.3062 23.9184 13.3065 24.0871 13.307 24.2558L13.4923 24.0705L10.894 24.0555L10.5258 24.0534L10.7111 24.2387C10.7111 23.1091 10.7136 21.9795 10.7187 20.8499C10.7201 20.5367 10.7223 20.2236 10.7253 19.9105C10.7279 19.6719 10.3573 19.6717 10.3546 19.9105C10.3403 21.1798 10.3422 22.4492 10.3408 23.7186C10.3408 23.892 10.3408 24.0654 10.3408 24.2389C10.3416 24.2878 10.3613 24.3345 10.3959 24.3691C10.4305 24.4037 10.4772 24.4235 10.5261 24.4242L13.1245 24.4392L13.4927 24.4413C13.5416 24.4406 13.5884 24.4209 13.623 24.3863C13.6576 24.3517 13.6773 24.305 13.678 24.256C13.678 23.1094 13.674 21.9627 13.6725 20.8161C13.6721 20.5735 13.6718 20.3309 13.6716 20.0883C13.6716 19.8498 13.301 19.8494 13.301 20.0883L13.3006 20.0881Z" fill="black"/>
<path d="M10.5608 20.1016C11.5134 20.1016 12.4661 20.0923 13.4187 20.0923C13.6572 20.0923 13.6576 19.7217 13.4187 19.7217C12.4661 19.7217 11.5134 19.7309 10.5608 19.7309C10.3224 19.7309 10.322 20.1016 10.5608 20.1016Z" fill="black"/>
<path d="M11.2601 20.9312C11.8046 20.9312 12.3491 20.9201 12.8937 20.9199C13.1322 20.9199 13.1326 20.5493 12.8937 20.5493C12.3491 20.5493 11.8046 20.5603 11.2601 20.5606C11.0216 20.5606 11.0212 20.9312 11.2601 20.9312Z" fill="black"/>
<path d="M11.2634 21.1088C11.6989 21.1088 12.1352 21.0988 12.5711 21.0987C12.6202 21.0987 12.6674 21.0791 12.7021 21.0444C12.7369 21.0096 12.7564 20.9625 12.7564 20.9133C12.7564 20.8642 12.7369 20.8171 12.7021 20.7823C12.6674 20.7476 12.6202 20.728 12.5711 20.728C12.1356 20.728 11.6994 20.7379 11.2634 20.7381C11.2143 20.7381 11.1672 20.7577 11.1324 20.7924C11.0976 20.8272 11.0781 20.8743 11.0781 20.9234C11.0781 20.9726 11.0976 21.0197 11.1324 21.0545C11.1672 21.0892 11.2143 21.1088 11.2634 21.1088Z" fill="black"/>
<path d="M17.8821 19.9228C17.8821 19.6733 17.8881 19.424 17.8884 19.1746C17.8878 19.1256 17.868 19.0789 17.8334 19.0443C17.7988 19.0097 17.7521 18.9899 17.7031 18.9892C16.7249 18.9892 15.7466 18.98 14.7683 18.98C14.7193 18.9807 14.6726 19.0005 14.638 19.0351C14.6034 19.0696 14.5837 19.1164 14.5829 19.1653C14.5815 19.4161 14.5662 19.6667 14.5654 19.9177C14.5648 20.1562 14.9354 20.1565 14.9361 19.9177C14.9368 19.6667 14.9521 19.4161 14.9536 19.1653L14.7683 19.3506C15.7466 19.3506 16.7249 19.3599 17.7031 19.3599L17.5178 19.1746C17.5178 19.424 17.5118 19.6733 17.5115 19.9228C17.5115 20.1613 17.8821 20.1616 17.8821 19.9228Z" fill="black"/>
<path d="M17.5116 19.9228C17.5116 21.1847 17.5134 22.4466 17.5171 23.7086C17.5171 23.8851 17.5174 24.0616 17.5179 24.2382L17.7032 24.0529L15.1049 24.0409L14.7366 24.0391L14.9219 24.2244C14.9219 23.0965 14.9245 21.9685 14.9295 20.8406C14.931 20.5304 14.9326 20.2198 14.9361 19.91C14.9388 19.6714 14.5682 19.6712 14.5655 19.91C14.5512 21.1769 14.5531 22.4441 14.5518 23.7111C14.5518 23.8822 14.5518 24.0533 14.5518 24.2244C14.5525 24.2733 14.5722 24.32 14.6068 24.3546C14.6414 24.3892 14.6881 24.409 14.7371 24.4097L17.3354 24.4218L17.7036 24.4235C17.7526 24.4229 17.7993 24.4031 17.8339 24.3685C17.8685 24.3339 17.8883 24.2871 17.889 24.2382C17.889 23.0504 17.8871 21.8627 17.8834 20.675C17.8834 20.4243 17.8831 20.1736 17.8827 19.9228C17.8827 19.6844 17.512 19.684 17.512 19.9228H17.5116Z" fill="black"/>
<path d="M18.6662 23.5965C18.6662 22.594 18.6646 21.5915 18.6614 20.589C18.661 20.3732 18.6608 20.1574 18.6607 19.9417C18.6607 19.7032 18.29 19.7028 18.29 19.9417C18.29 21.0095 18.2917 22.0773 18.295 23.1451C18.295 23.2956 18.2952 23.4461 18.2956 23.5965C18.2956 23.8349 18.6662 23.8354 18.6662 23.5965Z" fill="black"/>
<path d="M14.7708 20.1016C15.7235 20.1016 16.6761 20.0923 17.6288 20.0923C17.8672 20.0923 17.8677 19.7217 17.6288 19.7217C16.6761 19.7217 15.7235 19.7309 14.7708 19.7309C14.5323 19.7309 14.5319 20.1016 14.7708 20.1016Z" fill="black"/>
<path d="M15.471 20.9312C16.0155 20.9312 16.5601 20.9201 17.1046 20.9199C17.3431 20.9199 17.3435 20.5493 17.1046 20.5493C16.5601 20.5493 16.0155 20.5603 15.471 20.5606C15.2325 20.5606 15.2321 20.9312 15.471 20.9312Z" fill="black"/>
<path d="M15.4744 21.1088C15.9068 21.1088 16.3392 21.0988 16.7716 21.0987C16.8207 21.0987 16.8678 21.0791 16.9026 21.0444C16.9373 21.0096 16.9569 20.9625 16.9569 20.9133C16.9569 20.8642 16.9373 20.8171 16.9026 20.7823C16.8678 20.7476 16.8207 20.728 16.7716 20.728C16.3391 20.728 15.9067 20.7379 15.4744 20.7381C15.4252 20.7381 15.3781 20.7577 15.3433 20.7924C15.3086 20.8272 15.2891 20.8743 15.2891 20.9234C15.2891 20.9726 15.3086 21.0197 15.3433 21.0545C15.3781 21.0892 15.4252 21.1088 15.4744 21.1088Z" fill="black"/>
<path d="M6.91632 20.9312C7.46086 20.9312 8.0054 20.9201 8.54994 20.9199C8.78843 20.9199 8.7888 20.5493 8.54994 20.5493C8.0054 20.5493 7.46086 20.5603 6.91632 20.5606C6.67782 20.5606 6.67745 20.9312 6.91632 20.9312Z" fill="black"/>
<path d="M6.91871 21.1088C7.36151 21.1088 7.80422 21.0988 8.24694 21.0987C8.29608 21.0987 8.34322 21.0791 8.37797 21.0444C8.41272 21.0096 8.43225 20.9625 8.43225 20.9133C8.43225 20.8642 8.41272 20.8171 8.37797 20.7823C8.34322 20.7476 8.29608 20.728 8.24694 20.728C7.80422 20.728 7.36151 20.7379 6.91871 20.7381C6.86956 20.7381 6.82243 20.7577 6.78767 20.7924C6.75292 20.8272 6.7334 20.8743 6.7334 20.9234C6.7334 20.9726 6.75292 21.0197 6.78767 21.0545C6.82243 21.0892 6.86956 21.1088 6.91871 21.1088Z" fill="black"/>
<path d="M7.05743 22.4566C6.9524 22.6123 6.8811 22.7882 6.8481 22.9731C6.8151 23.1579 6.82114 23.3477 6.86582 23.53C6.93189 23.8302 7.0882 24.1796 7.40471 24.2798C7.42817 24.2863 7.45268 24.2881 7.47684 24.2851C7.50099 24.2821 7.52432 24.2743 7.54548 24.2623C7.56665 24.2503 7.58524 24.2342 7.6002 24.215C7.61515 24.1958 7.62618 24.1738 7.63264 24.1504C7.63911 24.1269 7.64089 24.1024 7.63789 24.0783C7.63488 24.0541 7.62715 24.0308 7.61513 24.0096C7.60311 23.9884 7.58704 23.9698 7.56783 23.9549C7.54863 23.9399 7.52667 23.9289 7.5032 23.9224C7.45845 23.9082 7.52322 23.9343 7.49885 23.9224C7.48745 23.9168 7.47652 23.9107 7.46558 23.9039C7.46503 23.9039 7.42852 23.8769 7.4464 23.8914C7.46429 23.906 7.43223 23.8776 7.42898 23.8744C7.41703 23.8629 7.40582 23.8505 7.39489 23.8381C7.38636 23.8284 7.38043 23.8201 7.39183 23.8352C7.37402 23.8111 7.35768 23.786 7.34291 23.7599C7.32725 23.7328 7.31307 23.7043 7.29982 23.6765C7.29278 23.6612 7.28639 23.6457 7.27462 23.6126C7.25152 23.5471 7.23294 23.4801 7.21903 23.4121C7.21569 23.3962 7.21263 23.38 7.20976 23.364C7.20902 23.3598 7.2017 23.3124 7.20429 23.3314C7.2067 23.3484 7.20077 23.2985 7.20087 23.2995C7.19938 23.2843 7.19818 23.2689 7.19725 23.2532C7.19321 23.1968 7.19379 23.1403 7.19901 23.084C7.20003 23.0747 7.20003 23.0737 7.19901 23.0811C7.19716 23.0943 7.19836 23.0876 7.20253 23.0613C7.2068 23.0404 7.21087 23.0195 7.21597 22.9988C7.22639 22.956 7.2392 22.9139 7.25433 22.8727C7.2856 22.7913 7.32691 22.7142 7.37728 22.6431C7.38957 22.6221 7.39759 22.5989 7.4009 22.5748C7.4042 22.5507 7.40273 22.5261 7.39656 22.5026C7.39038 22.4791 7.37963 22.457 7.36492 22.4376C7.3502 22.4182 7.33182 22.4019 7.3108 22.3896C7.28979 22.3773 7.26656 22.3693 7.24245 22.366C7.21833 22.3627 7.1938 22.3641 7.17026 22.3703C7.14671 22.3765 7.12461 22.3872 7.10522 22.402C7.08583 22.4167 7.06953 22.4351 7.05725 22.4561L7.05743 22.4566Z" fill="black"/>
<path d="M9.24393 21.9688C8.85848 21.7725 8.4318 21.7858 8.01883 21.8822C7.97161 21.8956 7.93154 21.927 7.90727 21.9696C7.883 22.0122 7.87648 22.0627 7.88911 22.1101C7.90304 22.157 7.93455 22.1967 7.97704 22.2208C8.01954 22.245 8.06973 22.2518 8.11714 22.2399C8.16893 22.2277 8.22091 22.2169 8.27335 22.2079C8.28651 22.2057 8.29958 22.2034 8.31273 22.2014C8.31625 22.2009 8.35119 22.1957 8.33821 22.1974C8.32524 22.1992 8.35897 22.1949 8.3623 22.1946C8.375 22.1931 8.3876 22.1918 8.40029 22.1906C8.49633 22.1806 8.59305 22.1789 8.68938 22.1855C8.70949 22.187 8.72959 22.1894 8.74961 22.1913C8.7774 22.1941 8.71764 22.1849 8.74395 22.1908C8.75322 22.1928 8.76249 22.1938 8.77175 22.1955C8.81016 22.2024 8.8482 22.2112 8.88572 22.2219C8.91926 22.2312 8.95243 22.2427 8.98495 22.2554C8.99107 22.2578 9.02378 22.274 8.9983 22.2607C8.97476 22.2481 9.00024 22.2618 9.00524 22.2642C9.02229 22.2724 9.03934 22.2804 9.05621 22.2891C9.09864 22.3139 9.1492 22.3208 9.19675 22.3083C9.2203 22.3022 9.24239 22.2914 9.26178 22.2767C9.28117 22.262 9.29748 22.2436 9.30976 22.2226C9.32204 22.2016 9.33007 22.1783 9.33337 22.1542C9.33668 22.1301 9.3352 22.1056 9.32903 22.082C9.32286 22.0585 9.31211 22.0364 9.29739 22.017C9.28268 21.9976 9.26429 21.9813 9.24328 21.969L9.24393 21.9688Z" fill="black"/>
<path d="M6.84137 22.2389C6.85063 22.2204 6.86175 22.2029 6.87278 22.1852C6.8838 22.1674 6.85314 22.2054 6.87658 22.18C6.88399 22.172 6.89103 22.1636 6.89854 22.1556C6.92879 22.1222 6.96338 22.0929 7.00138 22.0687C7.09476 22.0046 7.20211 21.9638 7.31447 21.9496C7.42561 21.9402 7.53743 21.9564 7.64133 21.9969C7.74524 22.0375 7.83847 22.1013 7.91386 22.1835L7.88523 21.9594C7.87059 21.9813 7.85546 22.003 7.83983 22.0242C7.86272 21.9932 7.82954 22.0367 7.82751 22.0391C7.82019 22.0479 7.81277 22.0566 7.80518 22.0653C7.76402 22.1128 7.71865 22.1565 7.66962 22.1958C7.65971 22.2042 7.6598 22.2038 7.66962 22.1958L7.65498 22.206C7.64173 22.2145 7.62885 22.2236 7.61542 22.2319C7.58815 22.2489 7.55997 22.2644 7.53101 22.2783C7.51952 22.2835 7.51924 22.2837 7.53036 22.2792L7.51183 22.2863C7.4933 22.293 7.47384 22.2995 7.45447 22.3049C7.44132 22.3086 7.42807 22.312 7.41472 22.315C7.41593 22.315 7.35913 22.3253 7.38081 22.3223C7.3444 22.3269 7.30766 22.3283 7.27101 22.3265C7.2458 22.327 7.22065 22.3239 7.19633 22.3172C7.16422 22.3101 7.13274 22.3005 7.10219 22.2883C7.1261 22.2975 7.08978 22.2817 7.0857 22.2796C7.0718 22.2727 7.05815 22.2652 7.04475 22.2572C7.029 22.2479 7.01389 22.2376 6.99842 22.2274C6.98915 22.2214 6.97766 22.2117 6.99305 22.224C6.9683 22.2039 6.94487 22.1822 6.92291 22.1591C6.91321 22.1491 6.90376 22.1389 6.89455 22.1284C6.89168 22.1249 6.86398 22.0905 6.87852 22.1098C6.89307 22.1292 6.86796 22.0944 6.86537 22.0907C6.85703 22.0785 6.84924 22.0659 6.84146 22.0532C6.82918 22.0322 6.81288 22.0138 6.79349 21.9991C6.7741 21.9844 6.752 21.9736 6.72845 21.9675C6.70491 21.9613 6.68038 21.9598 6.65626 21.9631C6.63215 21.9664 6.60892 21.9745 6.58791 21.9867C6.56689 21.999 6.5485 22.0153 6.53379 22.0347C6.51908 22.0541 6.50833 22.0762 6.50215 22.0997C6.49598 22.1233 6.49451 22.1478 6.49781 22.1719C6.50112 22.196 6.50914 22.2193 6.52143 22.2403C6.60746 22.389 6.73374 22.5105 6.88574 22.5906C7.03774 22.6708 7.20928 22.7064 7.38063 22.6934C7.73522 22.6558 8.01152 22.4366 8.20527 22.1474C8.22545 22.1118 8.23354 22.0707 8.22831 22.0302C8.22308 21.9897 8.20481 21.952 8.17626 21.9228C8.064 21.8032 7.92621 21.7106 7.77316 21.6517C7.62011 21.5929 7.45575 21.5693 7.29232 21.5828C6.99833 21.6154 6.65948 21.7752 6.52161 22.0532C6.49804 22.0959 6.4918 22.1461 6.50418 22.1933C6.51657 22.2405 6.54663 22.2811 6.58814 22.3067C6.63082 22.3309 6.68126 22.3373 6.72862 22.3246C6.77598 22.3119 6.81647 22.2811 6.84137 22.2389Z" fill="black"/>
<path d="M15.3493 22.7403C15.2433 23.0305 15.2379 23.348 15.3337 23.6417C15.4125 23.9053 15.5634 24.1921 15.8433 24.2797C15.8668 24.2862 15.8913 24.288 15.9155 24.285C15.9396 24.282 15.963 24.2742 15.9841 24.2622C16.0053 24.2502 16.0239 24.2341 16.0388 24.2149C16.0538 24.1957 16.0648 24.1738 16.0713 24.1503C16.0778 24.1268 16.0795 24.1023 16.0765 24.0782C16.0735 24.054 16.0658 24.0307 16.0538 24.0095C16.0418 23.9884 16.0257 23.9698 16.0065 23.9548C15.9873 23.9399 15.9653 23.9288 15.9418 23.9224C15.924 23.9167 15.907 23.9015 15.9394 23.9233C15.9309 23.9175 15.9209 23.914 15.9116 23.9085C15.9024 23.9029 15.8939 23.8958 15.8846 23.8911C15.919 23.9082 15.8938 23.8983 15.8809 23.8869C15.8636 23.8714 15.8487 23.8541 15.8328 23.8373C15.8014 23.8044 15.8522 23.868 15.8261 23.8293C15.8193 23.8191 15.8119 23.809 15.8052 23.7986C15.7756 23.7524 15.7499 23.7039 15.7283 23.6536C15.7446 23.6906 15.7238 23.6412 15.7224 23.6374C15.7176 23.6245 15.7132 23.6115 15.7085 23.5985C15.6986 23.5698 15.6896 23.5406 15.6816 23.5112C15.6665 23.4554 15.6543 23.3988 15.645 23.3418C15.6419 23.3241 15.6405 23.3083 15.6437 23.3354C15.6419 23.3197 15.6401 23.3042 15.6387 23.2884C15.6364 23.2632 15.6349 23.2379 15.6341 23.2126C15.6334 23.1873 15.6333 23.1602 15.6341 23.1341C15.6341 23.1228 15.6419 23.0542 15.6366 23.0888C15.6506 23.0032 15.6738 22.9193 15.706 22.8387C15.7187 22.7912 15.7122 22.7407 15.6879 22.6981C15.6637 22.6554 15.6236 22.624 15.5763 22.6107C15.5289 22.5988 15.4788 22.6056 15.4363 22.6298C15.3938 22.654 15.3623 22.6936 15.3484 22.7404L15.3493 22.7403Z" fill="black"/>
<path d="M17.6829 21.9688C17.2757 21.7617 16.817 21.7859 16.3851 21.9007C16.3377 21.9138 16.2975 21.9451 16.2732 21.9879C16.2489 22.0306 16.2426 22.0812 16.2557 22.1286C16.2687 22.176 16.3001 22.2163 16.3428 22.2406C16.3856 22.2648 16.4362 22.2711 16.4836 22.2581C16.6829 22.1993 16.8906 22.174 17.0981 22.1833C17.1201 22.1845 17.142 22.1861 17.164 22.1883L17.1958 22.1919C17.1796 22.19 17.1726 22.1883 17.1927 22.1919C17.2318 22.1991 17.2706 22.2067 17.309 22.217C17.3474 22.2274 17.3852 22.2404 17.4225 22.2541C17.427 22.2558 17.4559 22.2677 17.4318 22.2577C17.4077 22.2477 17.4364 22.2599 17.441 22.262C17.4596 22.2706 17.4775 22.2793 17.4956 22.2885C17.5166 22.3016 17.5401 22.3104 17.5645 22.3143C17.589 22.3182 17.614 22.3172 17.6381 22.3113C17.6621 22.3053 17.6848 22.2947 17.7046 22.2798C17.7245 22.265 17.7412 22.2464 17.7537 22.225C17.7662 22.2036 17.7743 22.1799 17.7776 22.1553C17.7808 22.1308 17.779 22.1058 17.7724 22.0819C17.7658 22.058 17.7545 22.0357 17.7391 22.0163C17.7237 21.9969 17.7046 21.9807 17.6829 21.9688Z" fill="black"/>
<path d="M8.59496 13.0965C8.31885 13.3264 8.20238 13.6589 8.12075 13.9978C8.03912 14.3366 7.9586 14.6492 7.73289 14.9236C7.55494 15.146 7.29761 15.2908 7.01508 15.3274C6.82123 15.3532 6.63013 15.3967 6.44413 15.4571C6.28217 15.514 6.11307 15.5868 6.02514 15.7443C5.82019 16.1112 6.11975 16.4728 6.44914 16.6162C6.81976 16.7774 7.25293 16.7618 7.6457 16.7136C7.98959 16.6841 8.32427 16.5869 8.63054 16.4277C8.89956 16.2712 9.12926 16.0553 9.30211 15.7965C9.53846 15.4572 9.69314 15.0678 9.75409 14.6589C9.79554 14.4286 9.8057 14.1939 9.78429 13.961C9.74958 13.7107 9.66767 13.4693 9.54292 13.2496C9.42766 13.0408 9.10744 13.2276 9.22289 13.4367C9.31676 13.602 9.3814 13.7823 9.41395 13.9696C9.43539 14.1528 9.43121 14.338 9.40153 14.5201C9.3628 14.8387 9.25965 15.1462 9.09836 15.4238C8.97352 15.6565 8.79908 15.859 8.58736 16.0168C8.35393 16.1743 8.08821 16.2774 7.8097 16.3188C7.46905 16.391 7.1176 16.3963 6.77492 16.3344C6.62739 16.3098 6.49161 16.2386 6.38743 16.1313C6.32155 16.0525 6.30348 15.9459 6.39484 15.8811C6.5364 15.8011 6.69179 15.7486 6.85284 15.7263C7.00526 15.6934 7.16101 15.6846 7.31149 15.6414C7.57571 15.5645 7.81061 15.4097 7.98556 15.1973C8.21294 14.9191 8.37028 14.5904 8.44439 14.2388C8.52306 13.9126 8.58681 13.5837 8.85727 13.3586C9.04073 13.2058 8.77731 12.9449 8.59515 13.0966L8.59496 13.0965Z" fill="black"/>
<path d="M8.89009 12.5841C8.82884 12.579 8.7676 12.5732 8.70644 12.5661L8.66623 12.5612C8.71256 12.5667 8.66623 12.5612 8.65836 12.5597C8.63908 12.557 8.62001 12.5529 8.60128 12.5476L8.68309 12.5952L8.68245 12.5946L8.73016 12.6764C8.74388 12.732 8.73647 12.7312 8.73767 12.7017C8.73582 12.748 8.73322 12.7326 8.73878 12.7004C8.74564 12.66 8.75361 12.6199 8.76204 12.5799C8.77001 12.5418 8.77844 12.5037 8.78761 12.4658C8.79187 12.4485 8.79614 12.4312 8.80095 12.4142C8.8042 12.4025 8.82338 12.3559 8.80466 12.3956L8.79697 12.4136C8.81865 12.371 8.78369 12.3968 8.69208 12.4912C8.69375 12.4906 8.69551 12.4904 8.69718 12.49C8.72294 12.4825 8.6351 12.4962 8.66725 12.494C8.68838 12.4927 8.7095 12.4905 8.73063 12.4891C8.79984 12.4846 8.86961 12.4815 8.93864 12.4786C9.11154 12.4711 9.28453 12.4651 9.45751 12.4595L9.65895 12.4531C9.67906 12.4524 9.69935 12.4525 9.71945 12.4511C9.72527 12.4513 9.73108 12.4511 9.73687 12.4506C9.70907 12.4498 9.68191 12.442 9.65788 12.428C9.63386 12.414 9.61374 12.3942 9.59937 12.3703C9.61216 12.3912 9.58084 12.319 9.58844 12.3461C9.59604 12.3731 9.58723 12.293 9.58566 12.3249C9.58519 12.3332 9.58631 12.342 9.58621 12.3503C9.58621 12.3702 9.58455 12.39 9.5826 12.4097C9.58208 12.4207 9.58081 12.4316 9.5788 12.4423C9.59205 12.3883 9.58112 12.4253 9.5788 12.4382C9.57482 12.4609 9.57102 12.4837 9.56666 12.5063C9.559 12.5461 9.55045 12.5857 9.541 12.6252C9.5346 12.6518 9.5044 12.7324 9.54322 12.6442L9.60975 12.5778C9.6596 12.5485 9.65126 12.5607 9.62142 12.5667C9.60289 12.5695 9.60484 12.5692 9.62847 12.5659L9.60234 12.5688C9.5485 12.5748 9.49458 12.5794 9.44065 12.5835C9.3915 12.5835 9.34437 12.6031 9.30962 12.6378C9.27486 12.6726 9.25534 12.7197 9.25534 12.7689C9.25534 12.818 9.27486 12.8651 9.30962 12.8999C9.34437 12.9346 9.3915 12.9542 9.44065 12.9542C9.54089 12.9505 9.64072 12.9393 9.73928 12.9207C9.77584 12.9113 9.80906 12.8919 9.83523 12.8647C9.86141 12.8375 9.87951 12.8035 9.88753 12.7666C9.91638 12.6603 9.93698 12.5519 9.94915 12.4423C9.96666 12.3025 9.95313 12.1366 9.79432 12.0872C9.72042 12.0751 9.64511 12.0745 9.57102 12.0852C9.34188 12.0925 9.11274 12.0998 8.88379 12.1104C8.80901 12.1138 8.73369 12.1157 8.65928 12.1243C8.6234 12.1241 8.58807 12.1331 8.55655 12.1502C8.52502 12.1673 8.49831 12.1921 8.47888 12.2223C8.45624 12.2664 8.44019 12.3135 8.43126 12.3623C8.39661 12.479 8.3745 12.599 8.36528 12.7204C8.3625 12.8531 8.47592 12.9057 8.58673 12.9215C8.68736 12.9361 8.78854 12.9466 8.88981 12.955C8.9389 12.9548 8.98592 12.9352 9.02063 12.9005C9.05534 12.8658 9.07493 12.8188 9.07512 12.7697C9.07397 12.7209 9.05408 12.6744 9.01957 12.6399C8.98506 12.6054 8.9386 12.5855 8.88981 12.5844L8.89009 12.5841Z" fill="black"/>
<path d="M8.73608 13.7636C8.63156 14.0416 8.61201 14.341 8.50833 14.6194C8.43286 14.8595 8.29965 15.0773 8.12038 15.2539C8.08662 15.2889 8.06794 15.3357 8.06837 15.3843C8.06879 15.4328 8.08828 15.4793 8.12264 15.5137C8.15699 15.548 8.20347 15.5675 8.25206 15.568C8.30065 15.5684 8.34746 15.5497 8.38241 15.5159C8.60858 15.3168 8.74377 15.0356 8.84995 14.7592C8.96234 14.4676 8.98366 14.1541 9.09345 13.8621C9.10608 13.8147 9.09956 13.7642 9.07529 13.7216C9.05102 13.6789 9.01095 13.6475 8.96373 13.6342C8.91633 13.6222 8.86614 13.629 8.82364 13.6532C8.78115 13.6774 8.74964 13.717 8.73571 13.7639L8.73608 13.7636Z" fill="black"/>
<path d="M8.85753 13.3587C8.89489 13.3204 8.92979 13.2798 8.96204 13.2371C8.99364 13.1878 9.01711 13.1337 9.03154 13.0769C9.05633 12.9761 9.07119 12.8731 9.07592 12.7694C9.07585 12.7203 9.05636 12.6731 9.02171 12.6383C9.00451 12.6211 8.98407 12.6074 8.96159 12.5981C8.9391 12.5888 8.915 12.584 8.89065 12.584C8.86631 12.584 8.84221 12.5888 8.81972 12.5981C8.79723 12.6074 8.7768 12.6211 8.75959 12.6383C8.72663 12.6742 8.7074 12.7207 8.70529 12.7694C8.70177 12.8146 8.69797 12.8597 8.69195 12.9047L8.69862 12.8555C8.69144 12.9183 8.67618 12.9799 8.65322 13.0388L8.67175 12.9945C8.66173 13.0184 8.64888 13.0409 8.63349 13.0616L8.66249 13.0241C8.64192 13.05 8.61718 13.0719 8.59531 13.0967C8.5615 13.132 8.54213 13.1788 8.54102 13.2277C8.54138 13.2767 8.56086 13.3237 8.59531 13.3587C8.61252 13.3759 8.63295 13.3896 8.65544 13.3989C8.67793 13.4082 8.70203 13.413 8.72637 13.413C8.75072 13.413 8.77482 13.4082 8.79731 13.3989C8.8198 13.3896 8.84032 13.3759 8.85753 13.3587Z" fill="black"/>
<path d="M9.26284 12.7118C9.24301 12.7929 9.23403 12.8777 9.22226 12.9603C9.20642 13.0715 9.19057 13.1837 9.17871 13.2958C9.17872 13.3449 9.19825 13.3921 9.23301 13.4268C9.26776 13.4616 9.31488 13.4811 9.36402 13.4811C9.41316 13.4811 9.46029 13.4616 9.49504 13.4268C9.52764 13.3907 9.54681 13.3444 9.54934 13.2958C9.55573 13.235 9.56379 13.1744 9.57185 13.1139L9.56527 13.1631C9.5774 13.0446 9.59574 12.9268 9.62022 12.8103C9.63328 12.7629 9.62698 12.7122 9.6027 12.6695C9.57843 12.6268 9.53817 12.5954 9.49078 12.5823C9.44339 12.5693 9.39275 12.5756 9.35 12.5999C9.30726 12.6241 9.2759 12.6644 9.26284 12.7118Z" fill="black"/>
<path d="M15.5174 22.673C15.5087 22.6294 15.5174 22.694 15.5174 22.6796C15.5174 22.6694 15.5158 22.6589 15.5155 22.6486C15.515 22.6242 15.5168 22.6001 15.5187 22.5758C15.5215 22.5387 15.5102 22.6168 15.5187 22.5769C15.5214 22.5645 15.5234 22.552 15.5262 22.5398C15.532 22.5139 15.5391 22.4883 15.5475 22.4629C15.5525 22.4476 15.5587 22.4325 15.5639 22.4173C15.5689 22.4049 15.5671 22.4087 15.5586 22.4287C15.5615 22.4221 15.5644 22.4155 15.5679 22.409C15.5812 22.38 15.5961 22.3518 15.6124 22.3243C15.6279 22.2982 15.6451 22.2733 15.6627 22.2485C15.639 22.2817 15.6663 22.2446 15.6719 22.2376C15.6838 22.2237 15.6962 22.2098 15.709 22.1971C15.7201 22.1857 15.7315 22.1747 15.7433 22.164C15.7498 22.158 15.7925 22.1231 15.7581 22.1494C15.7826 22.1308 15.8082 22.1137 15.8348 22.0982C15.862 22.0821 15.8904 22.0683 15.9182 22.0546C15.9568 22.0361 15.8953 22.0615 15.9328 22.0489C15.9505 22.0428 15.9679 22.0362 15.9857 22.0303C16.0189 22.0199 16.0526 22.0113 16.0867 22.0044C16.1024 22.0012 16.1182 21.9987 16.134 21.996C16.0902 22.0034 16.142 21.996 16.148 21.9954C16.1794 21.9928 16.2109 21.9919 16.2424 21.9927C16.258 21.9927 16.2735 21.9947 16.2887 21.9952C16.3103 21.9976 16.3092 21.9971 16.2853 21.9938C16.2953 21.9953 16.3053 21.997 16.3153 21.9988L16.1793 21.8202C16.1832 21.8778 16.1835 21.9357 16.1801 21.9934C16.1792 22.0065 16.1782 22.0197 16.1769 22.0328C16.1761 22.0421 16.1751 22.0506 16.1741 22.0594C16.1779 22.0326 16.1782 22.0296 16.1751 22.0502C16.1698 22.082 16.1637 22.1138 16.1557 22.1451C16.1481 22.175 16.139 22.2044 16.1285 22.2334C16.112 22.2788 16.1389 22.2155 16.1226 22.2496C16.1162 22.2628 16.1102 22.2761 16.1033 22.2891C16.087 22.3205 16.0678 22.3493 16.0489 22.379C16.0365 22.3958 16.0369 22.3956 16.0501 22.3784C16.0452 22.3846 16.0402 22.3908 16.035 22.397C16.023 22.4111 16.0105 22.4248 15.9974 22.4381C15.9859 22.4498 15.9741 22.461 15.9619 22.4719C15.9534 22.4795 15.9448 22.4869 15.9359 22.4942C15.9507 22.483 15.9495 22.4837 15.9323 22.4962C15.903 22.5163 15.8724 22.5343 15.8407 22.5501C15.8336 22.5536 15.8264 22.557 15.8192 22.5601C15.8394 22.5516 15.8398 22.5509 15.8202 22.5588C15.8056 22.5633 15.7914 22.5687 15.7767 22.5728C15.7576 22.5783 15.7383 22.5829 15.7187 22.5867C15.7065 22.5891 15.6691 22.6034 15.7103 22.5889C15.6777 22.5954 15.6443 22.5968 15.6113 22.5929C15.5953 22.5929 15.5794 22.591 15.5633 22.5902C15.5139 22.5878 15.5901 22.5965 15.5529 22.5894C15.4963 22.5794 15.4409 22.5641 15.3872 22.5436C15.3398 22.5308 15.2892 22.5372 15.2464 22.5615C15.2037 22.5858 15.1724 22.626 15.1592 22.6734C15.1476 22.7207 15.1545 22.7708 15.1787 22.8132C15.2028 22.8555 15.2422 22.8871 15.2889 22.9013C15.4502 22.9644 15.6262 22.9801 15.7962 22.9466C15.9662 22.913 16.123 22.8316 16.2482 22.7119C16.3596 22.5937 16.4442 22.4529 16.4963 22.2991C16.5484 22.1453 16.5668 21.9821 16.5502 21.8206C16.5496 21.7801 16.5361 21.741 16.5116 21.7088C16.4871 21.6766 16.4529 21.6532 16.4141 21.6418C16.2411 21.6099 16.0631 21.6199 15.8948 21.6709C15.7265 21.722 15.5728 21.8126 15.4468 21.9353C15.2395 22.1475 15.0994 22.4727 15.1595 22.7719C15.1728 22.8192 15.2042 22.8594 15.2469 22.8837C15.2896 22.908 15.3401 22.9144 15.3876 22.9017C15.4345 22.8877 15.4743 22.8561 15.4985 22.8134C15.5227 22.7708 15.5294 22.7205 15.5174 22.673Z" fill="black"/>
<path d="M16.16 21.4895L16.344 22.0505C16.3571 22.0979 16.3884 22.1381 16.4312 22.1624C16.4739 22.1867 16.5246 22.193 16.5719 22.1799C16.6193 22.1669 16.6596 22.1355 16.6839 22.0928C16.7081 22.05 16.7144 21.9994 16.7014 21.952L16.5174 21.391C16.5043 21.3436 16.4729 21.3033 16.4302 21.279C16.3874 21.2548 16.3368 21.2485 16.2894 21.2616C16.242 21.2746 16.2017 21.306 16.1775 21.3487C16.1532 21.3915 16.1469 21.4421 16.16 21.4895Z" fill="black"/>
<path d="M10.1462 13.9986C10.2729 14.2304 10.3139 14.4995 10.2618 14.7585C10.2097 15.0175 10.068 15.2498 9.86146 15.4146C9.82696 15.4495 9.80762 15.4966 9.80762 15.5456C9.80762 15.5947 9.82696 15.6417 9.86146 15.6766C9.89678 15.7103 9.94369 15.729 9.99247 15.729C10.0413 15.729 10.0882 15.7103 10.1235 15.6766C10.6693 15.245 10.8112 14.4086 10.4663 13.8116C10.347 13.605 10.0265 13.7915 10.1462 13.9986Z" fill="black"/>
<path d="M7.54135 13.5087C7.26088 13.7311 7.18064 14.0896 6.99931 14.3814C6.91249 14.5176 6.78857 14.6263 6.64212 14.6945C6.47983 14.7679 6.31068 14.8249 6.13715 14.8649C5.90699 14.9267 6.00465 15.2844 6.23564 15.2223C6.631 15.1162 7.02322 14.9833 7.27274 14.6386C7.47454 14.3596 7.53829 13.9814 7.80366 13.7711C7.83814 13.7362 7.85747 13.6891 7.85747 13.6401C7.85747 13.591 7.83814 13.5439 7.80366 13.509C7.76833 13.4753 7.7214 13.4565 7.6726 13.4565C7.62379 13.4565 7.57686 13.4753 7.54153 13.509L7.54135 13.5087Z" fill="black"/>
<path d="M9.08103 15.9776C9.10074 16.0017 9.12023 16.0261 9.1395 16.0506C9.14432 16.0567 9.14877 16.0629 9.15395 16.0691C9.1483 16.0622 9.13162 16.0399 9.14636 16.0599L9.17415 16.0969C9.2127 16.1484 9.25007 16.2008 9.28627 16.254C9.35755 16.3585 9.42429 16.4661 9.4865 16.5767C9.5113 16.6191 9.55195 16.65 9.5995 16.6624C9.64706 16.6749 9.69761 16.668 9.74005 16.6432C9.78249 16.6184 9.81334 16.5777 9.8258 16.5302C9.83827 16.4826 9.83134 16.4321 9.80653 16.3896C9.6715 16.1522 9.51632 15.9268 9.34269 15.7159C9.30792 15.6812 9.26081 15.6617 9.21168 15.6616C9.1626 15.662 9.1156 15.6815 9.08066 15.7159C9.04601 15.7507 9.0265 15.7978 9.02637 15.8469C9.02886 15.8956 9.04803 15.9418 9.08066 15.9779L9.08103 15.9776Z" fill="black"/>
<path d="M17.9295 15.9832C17.913 15.7651 17.8111 15.5623 17.6461 15.4188C17.4811 15.2753 17.2662 15.2025 17.0479 15.2163L17.2266 15.4509C17.3305 15.1981 17.2211 14.9062 17.0265 14.7293C16.9225 14.6357 16.7962 14.5705 16.6598 14.5396C16.5234 14.5088 16.3813 14.5135 16.2472 14.5532C16.1128 14.5871 15.9882 14.6517 15.883 14.7419C15.7777 14.832 15.6948 14.9453 15.6407 15.0729C15.5659 15.3124 15.5892 15.5717 15.7056 15.794C15.8339 16.0474 16.1512 16.2339 16.4354 16.1688C16.6677 16.1155 16.5694 15.758 16.3369 15.8113C16.3054 15.8163 16.2732 15.8119 16.2442 15.7988C16.2042 15.7844 16.1667 15.764 16.133 15.7382C16.0716 15.6898 16.0264 15.6239 16.0033 15.5493C15.9477 15.3639 15.9494 15.1817 16.1001 15.0455C16.2427 14.9166 16.4776 14.8376 16.6623 14.9224C16.8279 14.9985 16.9414 15.1769 16.8694 15.3519C16.8619 15.3794 16.8609 15.4082 16.8664 15.4362C16.8719 15.4642 16.8837 15.4905 16.9009 15.5132C16.9182 15.5358 16.9404 15.5542 16.9659 15.567C16.9914 15.5797 17.0195 15.5864 17.048 15.5865C17.2736 15.5689 17.549 15.7255 17.559 15.9827C17.5683 16.2205 17.9389 16.2216 17.9296 15.9827L17.9295 15.9832Z" fill="black"/>
<path d="M16.5229 15.4886C16.2185 15.6434 16.1565 16.0763 16.2693 16.3675C16.3864 16.6696 16.6693 16.942 17.0137 16.9105C17.0626 16.9094 17.1091 16.8896 17.1437 16.8551C17.1782 16.8205 17.198 16.774 17.1991 16.7251C17.1985 16.6762 17.1788 16.6293 17.1442 16.5947C17.1096 16.5601 17.0627 16.5404 17.0137 16.5398C16.9841 16.5425 16.9551 16.5406 16.9255 16.5417C16.9027 16.5426 16.9577 16.5496 16.9231 16.5417C16.909 16.5384 16.8953 16.5355 16.8813 16.5311C16.8759 16.5295 16.8392 16.514 16.8637 16.5256C16.8883 16.5371 16.8523 16.519 16.8475 16.5163C16.835 16.5093 16.8227 16.5017 16.8105 16.4938C16.8062 16.4909 16.7746 16.466 16.7936 16.482C16.8126 16.498 16.7811 16.4703 16.7775 16.4671C16.7658 16.4565 16.7544 16.4456 16.7432 16.4344C16.7238 16.4149 16.7061 16.3939 16.6876 16.374C16.7133 16.4011 16.6813 16.3647 16.6777 16.3594C16.6699 16.3479 16.6627 16.3361 16.6557 16.3241C16.6488 16.3122 16.6419 16.2997 16.6356 16.2871C16.634 16.2837 16.6138 16.2344 16.6264 16.2691C16.6165 16.2423 16.6071 16.2155 16.5999 16.1878C16.5956 16.1713 16.5923 16.1548 16.5887 16.1382C16.5813 16.1033 16.5878 16.1507 16.5873 16.1295C16.5868 16.0994 16.5852 16.0701 16.586 16.04C16.5872 16.0064 16.5822 16.0518 16.5868 16.0308C16.5898 16.017 16.5918 16.003 16.5949 15.9892C16.5986 15.9731 16.603 15.9571 16.6079 15.9415C16.6093 15.9369 16.6236 15.8951 16.6149 15.9188C16.6062 15.9426 16.6223 15.9036 16.6241 15.899C16.6311 15.8859 16.639 15.8735 16.6465 15.8608C16.6635 15.8317 16.6325 15.8717 16.6472 15.8584C16.6555 15.8505 16.6633 15.8421 16.6707 15.8332C16.6973 15.8032 16.6411 15.849 16.6748 15.8287C16.6862 15.8218 16.6973 15.8152 16.7091 15.8091C16.7513 15.7841 16.7819 15.7434 16.7944 15.696C16.8068 15.6485 16.8001 15.5981 16.7756 15.5555C16.75 15.514 16.7094 15.4839 16.6621 15.4715C16.6149 15.4592 16.5647 15.4655 16.522 15.4891L16.5229 15.4886Z" fill="black"/>
<path d="M17.1445 16.1595C17.0944 16.1762 17.0479 16.2021 17.0075 16.2361C16.9801 16.2596 16.9561 16.2868 16.9362 16.3169C16.9013 16.3678 16.8769 16.4252 16.8643 16.4856C16.8378 16.6001 16.8382 16.7193 16.8656 16.8336C16.8721 16.8571 16.8831 16.879 16.8981 16.8982C16.9131 16.9174 16.9317 16.9335 16.9528 16.9455C16.974 16.9575 16.9973 16.9653 17.0215 16.9683C17.0456 16.9713 17.0702 16.9695 17.0936 16.963C17.1171 16.9565 17.139 16.9455 17.1582 16.9305C17.1774 16.9156 17.1935 16.897 17.2055 16.8758C17.2175 16.8546 17.2253 16.8313 17.2283 16.8072C17.2313 16.783 17.2295 16.7585 17.223 16.735C17.2191 16.7196 17.216 16.7039 17.2137 16.6881L17.2204 16.7374C17.2136 16.6849 17.2136 16.6318 17.2204 16.5793L17.2138 16.6285C17.2186 16.5906 17.2282 16.5535 17.2424 16.518L17.2238 16.5623C17.2331 16.5402 17.245 16.5194 17.2592 16.5001L17.2302 16.5377C17.2417 16.5229 17.2549 16.5096 17.2697 16.4982L17.2322 16.5272C17.245 16.5177 17.2589 16.5098 17.2735 16.5035L17.2292 16.522C17.2339 16.5202 17.2385 16.5184 17.2433 16.5168C17.2894 16.5029 17.3288 16.4726 17.354 16.4317C17.3663 16.4107 17.3744 16.3874 17.3777 16.3633C17.381 16.3392 17.3795 16.3146 17.3733 16.2911C17.3671 16.2675 17.3564 16.2454 17.3417 16.226C17.3269 16.2066 17.3085 16.1903 17.2875 16.1781C17.2661 16.1656 17.2425 16.1576 17.218 16.1544C17.1935 16.1512 17.1686 16.1529 17.1447 16.1595H17.1445Z" fill="black"/>
<path d="M14.922 15.4167C14.8719 15.502 14.8469 15.5996 14.8498 15.6984C14.8528 15.7972 14.8835 15.8931 14.9386 15.9752C15.0389 16.1273 15.1888 16.24 15.3628 16.2941C15.4102 16.3068 15.4608 16.3004 15.5034 16.2761C15.5461 16.2518 15.5775 16.2117 15.5908 16.1644C15.6027 16.117 15.5959 16.0668 15.5717 16.0244C15.5475 15.9819 15.5079 15.9504 15.4611 15.9364C15.4419 15.9302 15.423 15.9231 15.4044 15.915L15.4487 15.9335C15.4165 15.9197 15.3855 15.9033 15.356 15.8845C15.3483 15.8796 15.3409 15.8743 15.3334 15.8692C15.3086 15.8521 15.3627 15.8932 15.3458 15.8792C15.3335 15.8689 15.3212 15.8586 15.3095 15.8475C15.2978 15.8364 15.2892 15.8273 15.2797 15.8167C15.2749 15.81 15.2697 15.8038 15.264 15.7979L15.2825 15.8222C15.2792 15.8179 15.2759 15.8129 15.2727 15.8088C15.254 15.7824 15.238 15.7541 15.2251 15.7245L15.2436 15.7687C15.2306 15.7371 15.2215 15.7039 15.2164 15.6701L15.223 15.7194C15.2192 15.6889 15.2192 15.6582 15.223 15.6277L15.2163 15.677C15.2198 15.6532 15.2261 15.6299 15.2348 15.6074L15.2163 15.6517C15.2235 15.635 15.2323 15.619 15.2425 15.6039C15.267 15.5614 15.2738 15.511 15.2613 15.4635C15.2489 15.4161 15.2183 15.3754 15.1761 15.3504C15.1334 15.3268 15.0832 15.3205 15.036 15.3329C14.9888 15.3452 14.9481 15.3753 14.9225 15.4168L14.922 15.4167Z" fill="black"/>
</svg>
